<?xml version="1.0" encoding="UTF-8"?><svg id="_レイヤー_2" xmlns="http://www.w3.org/2000/svg" viewBox="0 0 678.67 287.56"><defs><style>.cls-1{fill:#000;stroke-width:0px;}</style></defs><g id="_レイヤー_1のコピー_2"><path class="cls-1" d="M4.73,247.52c-1.21,0-2.31-.48-3.28-1.46-.97-.97-1.46-2.06-1.46-3.28v-117.75c0-2.79,1.03-5.22,3.09-7.28,2.06-2.06,4.49-3.09,7.28-3.09h42.22c1.09,0,2,.36,2.73,1.09s1.09,1.64,1.09,2.73-.36,2.03-1.09,2.82c-.73.79-1.64,1.18-2.73,1.18H11.1c-.97,0-1.46.55-1.46,1.64v45.5c0,.97.48,1.46,1.46,1.46h39.86c1.09,0,2,.4,2.73,1.18.73.79,1.09,1.73,1.09,2.82,0,2.43-1.27,3.64-3.82,3.64H11.1c-.97,0-1.46.55-1.46,1.64v62.43c0,1.21-.49,2.31-1.46,3.28s-2.12,1.46-3.46,1.46Z"/><path class="cls-1" d="M82.63,122.12c-.97,0-1.85-.39-2.64-1.18-.79-.79-1.18-1.67-1.18-2.64s.39-1.82,1.18-2.55c.79-.73,1.67-1.09,2.64-1.09h21.48c2.79,0,5.22,1.03,7.28,3.09,2.06,2.06,3.09,4.49,3.09,7.28v113.39c0,1.09.55,1.64,1.64,1.64h20.93c.97,0,1.82.4,2.55,1.18.73.79,1.09,1.67,1.09,2.64s-.36,1.82-1.09,2.55-1.58,1.09-2.55,1.09h-21.66c-2.79,0-5.22-1.03-7.28-3.09-2.06-2.06-3.09-4.49-3.09-7.28v-113.39c0-1.09-.55-1.64-1.64-1.64h-20.75Z"/><path class="cls-1" d="M194.74,249.34c-11.41,0-19.41-2.18-24.02-6.55-4.61-4.37-6.92-11.89-6.92-22.57v-62.79c0-1.21.46-2.28,1.37-3.19.91-.91,2.03-1.37,3.37-1.37,1.21,0,2.24.43,3.09,1.27.85.85,1.27,1.94,1.27,3.28v62.79c0,8.01,1.61,13.59,4.82,16.74,3.21,3.16,8.89,4.73,17.02,4.73,6.67,0,12.86-1.27,18.56-3.82.97-.36,1.46-1.09,1.46-2.18v-78.08c0-1.33.46-2.46,1.37-3.37.91-.91,1.97-1.37,3.18-1.37s2.28.46,3.19,1.37c.91.91,1.36,2.03,1.36,3.37v74.62c0,3.28-.85,6.25-2.55,8.92-1.7,2.67-4,4.43-6.92,5.28-6.43,1.94-12.98,2.91-19.66,2.91Z"/><path class="cls-1" d="M247.16,163.98c-.97,0-1.82-.39-2.55-1.18-.73-.79-1.09-1.67-1.09-2.64s.36-1.82,1.09-2.55c.73-.73,1.58-1.09,2.55-1.09h18.56c.97,0,1.46-.55,1.46-1.64v-12.92c0-10.68,1.76-18.2,5.28-22.57,3.52-4.37,9.52-6.55,18.02-6.55,3.64,0,7.34.36,11.1,1.09,2.55.49,3.82,2.12,3.82,4.91,0,.97-.39,1.76-1.18,2.37-.79.61-1.67.79-2.64.55-4-.85-7.28-1.27-9.83-1.27-6.07,0-10.13,1.46-12.19,4.37-2.06,2.91-3.09,9.53-3.09,19.84v10.19c0,1.09.55,1.64,1.64,1.64h23.66c.97,0,1.82.36,2.55,1.09.73.73,1.09,1.58,1.09,2.55s-.36,1.85-1.09,2.64c-.73.79-1.58,1.18-2.55,1.18h-23.66c-1.09,0-1.64.55-1.64,1.64v77.35c0,1.34-.46,2.43-1.37,3.28-.91.85-1.97,1.27-3.18,1.27-1.34,0-2.46-.46-3.37-1.37-.91-.91-1.37-1.97-1.37-3.18v-77.35c0-1.09-.49-1.64-1.46-1.64h-18.56Z"/><path class="cls-1" d="M327.24,163.98c-.97,0-1.82-.39-2.55-1.18-.73-.79-1.09-1.67-1.09-2.64s.36-1.82,1.09-2.55c.73-.73,1.58-1.09,2.55-1.09h18.56c.97,0,1.46-.55,1.46-1.64v-12.92c0-10.68,1.76-18.2,5.28-22.57,3.52-4.37,9.52-6.55,18.02-6.55,3.64,0,7.34.36,11.1,1.09,2.55.49,3.82,2.12,3.82,4.91,0,.97-.4,1.76-1.18,2.37-.79.61-1.67.79-2.64.55-4-.85-7.28-1.27-9.83-1.27-6.07,0-10.13,1.46-12.2,4.37-2.06,2.91-3.09,9.53-3.09,19.84v10.19c0,1.09.55,1.64,1.64,1.64h23.66c.97,0,1.82.36,2.55,1.09.73.73,1.09,1.58,1.09,2.55s-.37,1.85-1.09,2.64c-.73.79-1.58,1.18-2.55,1.18h-23.66c-1.09,0-1.64.55-1.64,1.64v77.35c0,1.34-.46,2.43-1.37,3.28-.91.85-1.97,1.27-3.18,1.27-1.34,0-2.46-.46-3.37-1.37-.91-.91-1.37-1.97-1.37-3.18v-77.35c0-1.09-.49-1.64-1.46-1.64h-18.56Z"/><path class="cls-1" d="M430.61,242.79l-30.21-85.54c-.36-1.09-.18-2.09.55-3,.73-.91,1.64-1.37,2.73-1.37,2.91,0,4.91,1.46,6.01,4.37l25.48,75.17c0,.12.06.18.18.18.24,0,.36-.06.36-.18l24.75-74.98c.97-3.03,3.09-4.55,6.37-4.55,1.21,0,2.15.49,2.82,1.46.67.97.82,2,.46,3.09l-43.32,125.58c-.97,3.03-3.03,4.55-6.19,4.55-1.21,0-2.16-.49-2.82-1.46-.67-.97-.82-2-.46-3.09l13.29-37.13c.36-1.09.36-2.12,0-3.09Z"/><path class="cls-1" d="M580.86,150.11l-5.79-3.93c16.24-23.92,10.99-43.23,10.75-44.04l6.72-1.96c.27.93,6.51,23.13-11.68,49.93Z"/><path class="cls-1" d="M566.33,174.57c-2.6,0-5.21-.86-7.37-2.62h0c-4.99-4.07-5.74-11.44-1.67-16.43l6.24-7.65c4.07-4.99,11.44-5.74,16.43-1.67,4.99,4.07,5.74,11.44,1.67,16.43l-6.24,7.65c-2.31,2.83-5.67,4.29-9.06,4.29ZM563.39,166.52c2,1.63,4.95,1.33,6.58-.67l6.24-7.65c1.63-2,1.33-4.95-.67-6.58-2-1.63-4.95-1.33-6.58.67l-6.24,7.65c-1.63,2-1.33,4.95.67,6.58h0Z"/><rect class="cls-1" x="590.5" y="11.51" width="30.01" height="8" transform="translate(463.57 604.35) rotate(-77.92)"/><rect class="cls-1" x="511.07" y="56.27" width="8" height="29.92" transform="translate(176.92 466.22) rotate(-57.31)"/><rect class="cls-1" x="538.1" y="13" width="8" height="29.92" transform="translate(17.89 168.87) rotate(-18)"/><rect class="cls-1" x="648.32" y="98.3" width="29.92" height="8" transform="translate(-7.84 99.59) rotate(-8.54)"/><rect class="cls-1" x="641.87" y="47.9" width="29.92" height="8" transform="translate(177.45 503.91) rotate(-47.83)"/></g></svg>