<?xml version="1.0" encoding="UTF-8"?><svg id="_レイヤー_2" xmlns="http://www.w3.org/2000/svg" viewBox="0 0 280 280"><defs><style>.cls-1{fill:#000;}.cls-1,.cls-2{stroke-width:0px;}.cls-2{fill:#fff;}</style></defs><g id="_レイヤー_1のコピー_2"><rect class="cls-2" x="0" y="0" width="280" height="280"/><path class="cls-1" d="M143.05,152.89l-6.72,1.96c.23.79,5.19,19.06-9.47,42.07-4.49-1.53-9.66-.23-12.83,3.66l-6.24,7.65c-4.07,4.99-3.32,12.36,1.67,16.43,2.16,1.76,4.77,2.62,7.37,2.62,3.39,0,6.76-1.47,9.06-4.29l6.24-7.65c3.42-4.2,3.42-10.07.37-14.26,16.77-26.02,10.81-47.28,10.54-48.19ZM126.72,210.92l-6.24,7.65c-1.63,2-4.58,2.3-6.58.67-2-1.63-2.3-4.58-.67-6.58l6.24-7.65c1.63-2,4.58-2.3,6.58-.67,2,1.63,2.3,4.58.67,6.58Z"/><rect class="cls-1" x="141.01" y="64.22" width="30.01" height="8" transform="translate(56.64 206.5) rotate(-77.92)"/><rect class="cls-1" x="61.58" y="108.98" width="8" height="29.92" transform="translate(-74.15 112.18) rotate(-57.31)"/><rect class="cls-1" x="88.61" y="65.71" width="8" height="29.92" transform="translate(-20.4 32.56) rotate(-18)"/><rect class="cls-1" x="198.83" y="151.01" width="29.92" height="8" transform="translate(-20.63 33.44) rotate(-8.53)"/><rect class="cls-1" x="192.38" y="100.61" width="29.92" height="8" transform="translate(-9.38 188.07) rotate(-47.83)"/></g></svg>