<?xml version="1.0" encoding="utf-8"?>
<!-- Generator: Adobe Illustrator 27.0.0, SVG Export Plug-In . SVG Version: 6.00 Build 0)  -->
<svg version="1.1" id="_レイヤー_1" xmlns="http://www.w3.org/2000/svg" xmlns:xlink="http://www.w3.org/1999/xlink" x="0px"
	 y="0px" viewBox="0 0 650 130" style="enable-background:new 0 0 650 130;" xml:space="preserve">
<g>
	<g>
		<g>
			<polygon points="185.6,130 224.2,130 224.2,119.1 233.7,119.1 233.7,75.1 214.4,75.1 214.4,118.9 195.3,118.9 195.3,75.1 
				176,75.1 176,119.1 185.6,119.1 			"/>
			<polygon points="127.2,108.2 136.6,108.2 136.6,119.1 146.1,119.1 146.1,130 175.2,130 175.2,118.9 165.6,118.9 165.6,108 
				156.1,108 156.1,97 146.4,97 146.4,86.3 156.1,86.3 156.1,75.4 165.6,75.4 165.6,64.2 155.9,64.2 155.9,75.1 146.1,75.1 
				146.1,86 136.6,86 136.6,97 127.2,97 127.2,64.2 107.9,64.2 107.9,130 127.2,130 			"/>
			<polygon points="239.8,75.1 239.8,130 259.1,130 259.1,97.2 278.3,97.2 278.3,75.1 268.6,75.1 268.6,86.1 259.1,86.1 259.1,75.1 
							"/>
			<polygon points="374.2,83.5 374.2,76.1 380.7,76.1 380.7,61.1 374.2,61.1 374.2,53.7 354.6,53.7 354.6,61.1 348.1,61.1 
				348.1,68.6 354.7,68.6 354.7,61.3 367.6,61.3 367.6,76 361.1,76 361.1,83.4 354.6,83.4 354.6,90.8 348.1,90.8 348.1,98.3 
				380.7,98.3 380.7,90.8 367.8,90.8 367.8,83.5 			"/>
			<polygon points="293.9,130 332.5,130 332.5,119.1 342.1,119.1 342.1,75.1 322.8,75.1 322.8,118.9 303.7,118.9 303.7,75.1 
				284.3,75.1 284.3,119.1 293.9,119.1 			"/>
		</g>
		<g>
			<path d="M443.3,64.3h-48.1V130h48.1v-10.9h9.6v-22h-9.6V86.3h9.6V75.2h-9.6V64.3z M433.5,118.9h-19V97.3h19V118.9z M433.5,86h-19
				V75.5h19V86z"/>
			<polygon points="586.2,86.1 576.6,86.1 576.6,119.1 586.2,119.1 586.2,130 615.2,130 615.2,119.1 624.6,119.1 624.6,108 
				614.9,108 614.9,118.9 595.9,118.9 595.9,86.4 614.9,86.4 614.9,97.3 624.6,97.3 624.6,75.2 586.2,75.2 			"/>
			<g>
				<rect x="630.7" y="53.6" width="19.3" height="11.1"/>
				<rect x="630.7" y="75.2" width="19.3" height="54.8"/>
			</g>
			<polygon points="532.2,86.1 522.6,86.1 522.6,119.1 532.2,119.1 532.2,130 561.1,130 561.1,119.1 570.6,119.1 570.6,108 
				560.9,108 560.9,118.9 541.9,118.9 541.9,86.4 560.9,86.4 560.9,97.3 570.6,97.3 570.6,75.2 532.2,75.2 			"/>
			<path d="M507,75.2h-38.5v10.9h-9.6v33h9.6V130H507v-10.9h9.6v-33H507V75.2z M497.2,118.9h-19V86.4h19V118.9z"/>
		</g>
	</g>
	<g>
		<polygon points="45.6,114.8 45.3,114.8 30.4,114.8 15.2,114.8 15.2,99.7 15.2,84.5 15.2,69.3 0,69.3 0,84.5 0,99.7 0,114.8 0,130 
			15.2,130 30.4,130 45.3,130 45.6,130 60.5,130 75.7,130 75.7,114.8 60.5,114.8 		"/>
		<polygon points="60.5,54.1 45.6,54.1 45.3,54.1 30.4,54.1 30.4,69.3 30.4,84.5 30.4,99.7 45.3,99.7 45.6,99.7 60.5,99.7 
			60.5,84.5 45.6,84.5 45.6,69.3 60.5,69.3 75.7,69.3 75.7,54.1 		"/>
		<polygon points="75.7,69.3 75.7,84.5 75.7,99.7 75.7,114.8 90.9,114.8 90.9,99.7 90.9,84.5 90.9,69.3 		"/>
	</g>
</g>
<g>
	<path d="M233.3,30.7c-4.7-4.4-12.6-9.2-17-12.2c-1.2-0.8-1.8-2-1.8-3.2c0-1.1,0.5-2.1,1.6-2.9c1.7-1.3,4.7-3,8-5c3-1.9,6.2-4,8.7-6
		l3,3c-2.9,2-6.4,4-9.6,5.8c-6.6,3.8-7.5,4.4-7.5,5.2c0,0.4,0.3,0.8,1,1.2c5.4,3.4,12.5,7.6,17,11.1L233.3,30.7z"/>
	<path d="M268.4,6.3c-2.1,1.5-8.4,5.6-8.4,5.6c-1.3,0.9-3.2,1.9-4.3,2.6c-0.1,0.1-0.1,0.1-0.1,0.1c0,0,0,0,0,0c0.1,0,0.1,0,0.2,0
		c2.5-1.1,4.7-1.6,7.3-1.6c4.2,0,9.4,2.1,9.4,7.7c0,6.3-6.5,9.4-13.2,9.4c-5.8,0-10.4-2-10.4-5.8c0-3,2.9-4.1,5.5-4.1
		c3.8,0,6.5,2.7,6.8,6.8c3.7-0.5,7.4-2.8,7.4-6.1c0-4.3-3.9-5.2-7.3-5.2c-2.2,0-8,0.9-13.6,4.9l-2.1-3c1.2-0.6,2.6-1.4,3.8-2.2
		c3.3-2,9.8-6.4,9.8-6.4c1.1-0.7,4.2-2.8,4.2-2.8s-4,0.2-4.6,0.3c-2.4,0.1-7.8,0.2-9,0.3l-0.1-3.3l18.6-0.2L268.4,6.3z M254.5,22.8
		c-1,0-2.3,0.3-2.3,1.5c0,1.6,2.3,2.6,5.7,2.8C257.6,25.4,257,22.8,254.5,22.8z"/>
	<path d="M297.6,30.7c-4.7-4.4-12.6-9.2-17-12.2c-1.2-0.8-1.8-2-1.8-3.2c0-1.1,0.5-2.1,1.6-2.9c1.7-1.3,4.7-3,8-5c3-1.9,6.2-4,8.7-6
		l3,3c-2.9,2-6.4,4-9.6,5.8c-6.6,3.8-7.5,4.4-7.5,5.2c0,0.4,0.3,0.8,1,1.2c5.4,3.4,12.5,7.6,17,11.1L297.6,30.7z"/>
	<path d="M330.8,6.3c-2.1,1.5-8.4,5.6-8.4,5.6c-1.3,0.9-3.2,1.9-4.3,2.6c-0.1,0.1-0.1,0.1-0.1,0.1c0,0,0,0,0,0c0.1,0,0.1,0,0.2,0
		c2.5-1.1,4.7-1.6,7.3-1.6c4.2,0,9.4,2.1,9.4,7.7c0,6.3-6.5,9.4-13.2,9.4c-5.8,0-10.4-2-10.4-5.8c0-3,2.9-4.1,5.5-4.1
		c3.8,0,6.5,2.7,6.8,6.8c3.7-0.5,7.4-2.8,7.4-6.1c0-4.3-3.9-5.2-7.3-5.2c-2.2,0-8,0.9-13.6,4.9l-2.1-3c1.2-0.6,2.6-1.4,3.8-2.2
		c3.3-2,9.8-6.4,9.8-6.4c1.1-0.7,4.2-2.8,4.2-2.8s-4,0.2-4.6,0.3c-2.4,0.1-7.8,0.2-9,0.3l-0.1-3.3l18.6-0.2L330.8,6.3z M316.9,22.8
		c-1,0-2.3,0.3-2.3,1.5c0,1.6,2.3,2.6,5.7,2.8C320,25.4,319.4,22.8,316.9,22.8z"/>
	<path d="M344.7,29.9c-0.4-2.2-0.5-5.1-0.5-8.2c0-6.8,0.8-14.6,1.5-19l3.8,0.4c-1,4.7-1.7,11.4-1.7,17.3c0,3.5,0.2,6.7,0.7,9.1
		L344.7,29.9z M370.1,29.1c-1.5-1.5-3.1-2.9-4.8-4c-0.5,3.3-3.2,4.9-6.9,4.9c-3.6,0-7.3-1.7-7.3-5.2c0-3.2,3.4-5.2,6.8-5.2
		c1.2,0,2.6,0.2,4.1,0.6c0-1.5-0.1-3.2-0.1-4.9h-10.3v-3.1h10.2l-0.1-4.8l-9.8,0V4.2l13.2-0.1c-0.5-1.3-1.1-2.7-1.5-3.6l2.4-0.4
		c0.8,1.5,2,4.2,2.5,6.1l-0.9,0.2v0.7l-2.4,0.1c0,0.6,0,4,0,4.8h5.6v3.1l-5.6,0c0,2.2,0.1,4.4,0.1,6.1c2.1,1,4.4,2.4,6.6,4.5
		L370.1,29.1z M357.8,22.5c-1.8,0-3.6,0.8-3.6,2.1c0,1.4,1.6,2.3,3.9,2.3c2.4,0,3.8-1.2,3.9-3.6C360.6,22.8,359.2,22.5,357.8,22.5z
		 M370.7,6.6c-0.5-1.8-1.6-4.4-2.5-6.2l2.4-0.4c0.9,1.6,2.1,4.2,2.6,6L370.7,6.6z"/>
	<path d="M383.7,26.1c11-0.1,15.6-2.8,15.6-7.4c0-3.7-3.5-4.5-6.5-4.5c-3.1,0-5.9,0.6-12.8,2.1l-1-3.3c6.6-1.2,10.3-1.9,14.2-1.9
		c5.2,0,9.7,1.9,9.7,7.8c0,7.3-7,10.2-17.7,10.5L383.7,26.1z"/>
	<path d="M412.9,25.7c2.8,0.5,5.4,0.8,8.1,0.8c7.3,0,10.6-2.4,10.6-5.2c0-3.3-4-3.7-6.5-3.7c-3.8,0-7.9,1.1-10.7,3.8l-3.3-1.6
		c2.1-2.7,4.4-7,5.9-10.6h-7.4V5.9l8.3,0c0.6-1.5,1-2.9,1.3-4.2l3.9,0.5c-0.4,1.1-0.9,2.4-1.4,3.7l11.9-0.1v3.3h-13
		c-1.2,2.7-2.8,5.5-3.9,7.3c2.8-1.4,5.5-2.1,8.7-2.1c2.7,0,10.1,0.5,10.1,6.9c0,6.8-8,8.8-14.9,8.8c-2.3,0-4.5-0.2-6.9-0.5
		L412.9,25.7z"/>
</g>
</svg>
