<?xml version="1.0" encoding="iso-8859-1"?>
<!-- Generator: Adobe Illustrator 26.5.0, SVG Export Plug-In . SVG Version: 6.00 Build 0)  -->
<svg version="1.1" id="&#x30EC;&#x30A4;&#x30E4;&#x30FC;_1"
	 xmlns="http://www.w3.org/2000/svg" xmlns:xlink="http://www.w3.org/1999/xlink" x="0px" y="0px" viewBox="0 0 500 500"
	 style="enable-background:new 0 0 500 500;" xml:space="preserve">
<g>
	<g>
		<polygon points="463.366,321.157 382.793,73.317 438.934,33.019 434.705,27.154 -0.5,340.6 500,340.667 500,321.157 		"/>
		<path style="fill:#FFFFFF;" d="M250.77,310.001c-24.119,0-43.743-27.422-43.743-61.123c0-33.699,19.623-61.121,43.743-61.121
			c24.117,0,43.738,27.422,43.738,61.121C294.508,282.58,274.887,310.001,250.77,310.001"/>
		<path style="fill:#FFFFFF;" d="M354.993,285.872c-25.155,0-45.619-28.775-45.619-64.144c0-35.372,20.464-64.147,45.619-64.147
			c25.155,0,45.619,28.775,45.619,64.147C400.612,257.097,380.148,285.872,354.993,285.872"/>
		<path d="M260.179,201.923c-9.651,0-17.476,10.775-17.476,24.084c0,13.302,7.825,24.086,17.476,24.086
			c9.649,0,17.476-10.784,17.476-24.086C277.655,212.699,269.827,201.923,260.179,201.923"/>
		<path d="M362.694,169.455c-10.063,0-18.219,11.186-18.219,24.989c0,13.796,8.156,24.982,18.219,24.982
			c10.063,0,18.221-11.186,18.221-24.982C380.915,180.641,372.757,169.455,362.694,169.455"/>
	</g>
</g>
</svg>
