<?xml version="1.0" encoding="iso-8859-1"?>
<!-- Generator: Adobe Illustrator 26.5.0, SVG Export Plug-In . SVG Version: 6.00 Build 0)  -->
<svg version="1.1" id="&#x30EC;&#x30A4;&#x30E4;&#x30FC;_1"
	 xmlns="http://www.w3.org/2000/svg" xmlns:xlink="http://www.w3.org/1999/xlink" x="0px" y="0px" viewBox="0 0 340 350"
	 style="enable-background:new 0 0 340 350;" xml:space="preserve">
<g>
	<path style="fill:#06C755;" d="M257.86,320H82.14C42.298,320,10,287.701,10,247.859V72.14C10,32.298,42.298,0,82.14,0h175.72
		C297.702,0,330,32.298,330,72.14v175.719C330,287.701,297.702,320,257.86,320z"/>
	<g>
		<g>
			<g>
				<path style="fill:#FFFFFF;" d="M276.656,144.924c0-47.739-47.859-86.579-106.689-86.579c-58.824,0-106.688,38.84-106.688,86.579
					c0,42.799,37.955,78.642,89.225,85.418c3.474,0.751,8.204,2.291,9.399,5.261c1.076,2.696,0.704,6.922,0.345,9.647
					c0,0-1.252,7.528-1.523,9.133c-0.465,2.696-2.145,10.549,9.241,5.752c11.388-4.798,61.441-36.179,83.824-61.941h-0.005
					C269.248,181.237,276.656,164.03,276.656,144.924z"/>
			</g>
			<g>
				<path style="fill:#06C755;" d="M241.163,172.49h-29.934h-0.04c-1.125,0-2.037-0.912-2.037-2.037v-0.033v-0.003v-46.478v-0.003
					v-0.044c0-1.125,0.912-2.037,2.037-2.037h0.04h29.934c1.121,0,2.037,0.916,2.037,2.037v7.566c0,1.125-0.912,2.037-2.037,2.037
					h-20.37v7.857h20.37c1.121,0,2.037,0.917,2.037,2.037v7.566c0,1.125-0.912,2.037-2.037,2.037h-20.37v7.857h20.37
					c1.121,0,2.037,0.917,2.037,2.037v7.566C243.2,171.578,242.288,172.49,241.163,172.49z"/>
				<path style="fill:#06C755;" d="M130.289,172.49c1.125,0,2.037-0.912,2.037-2.037v-7.566c0-1.12-0.917-2.037-2.037-2.037h-20.371
					v-36.958c0-1.121-0.917-2.037-2.037-2.037h-7.566c-1.125,0-2.037,0.912-2.037,2.037v46.525v0.003v0.033
					c0,1.125,0.912,2.037,2.037,2.037h0.04H130.289z"/>
				<path style="fill:#06C755;" d="M148.333,121.855h-7.566c-1.125,0-2.037,0.912-2.037,2.037v46.562
					c0,1.125,0.912,2.037,2.037,2.037h7.566c1.125,0,2.037-0.912,2.037-2.037v-46.562
					C150.37,122.767,149.459,121.855,148.333,121.855z"/>
				<path style="fill:#06C755;" d="M199.842,121.855h-7.566c-1.125,0-2.037,0.912-2.037,2.037v27.655l-21.303-28.769
					c-0.049-0.074-0.105-0.144-0.164-0.211c-0.004-0.005-0.009-0.01-0.013-0.015c-0.039-0.044-0.08-0.086-0.123-0.127
					c-0.013-0.012-0.026-0.023-0.038-0.035c-0.036-0.032-0.073-0.064-0.111-0.093c-0.018-0.014-0.037-0.027-0.055-0.041
					c-0.035-0.026-0.071-0.05-0.108-0.074c-0.021-0.013-0.041-0.026-0.062-0.038c-0.037-0.022-0.074-0.043-0.112-0.062
					c-0.021-0.011-0.043-0.021-0.065-0.031c-0.039-0.018-0.079-0.035-0.119-0.051c-0.022-0.008-0.044-0.016-0.066-0.024
					c-0.041-0.014-0.082-0.028-0.124-0.04c-0.024-0.007-0.048-0.013-0.072-0.018c-0.04-0.01-0.08-0.019-0.121-0.026
					c-0.029-0.005-0.058-0.009-0.087-0.013c-0.037-0.005-0.073-0.01-0.11-0.014c-0.036-0.003-0.072-0.004-0.109-0.005
					c-0.023-0.001-0.046-0.004-0.07-0.004h-7.525c-1.125,0-2.037,0.912-2.037,2.037v46.562c0,1.125,0.912,2.037,2.037,2.037h7.566
					c1.125,0,2.037-0.912,2.037-2.037v-27.646l21.33,28.806c0.147,0.208,0.326,0.378,0.525,0.513
					c0.008,0.006,0.016,0.011,0.024,0.016c0.041,0.028,0.085,0.053,0.128,0.078c0.019,0.011,0.039,0.022,0.059,0.033
					c0.032,0.017,0.065,0.033,0.099,0.048c0.033,0.015,0.066,0.03,0.1,0.043c0.021,0.008,0.043,0.016,0.065,0.024
					c0.046,0.016,0.093,0.032,0.141,0.045c0.009,0.003,0.019,0.005,0.029,0.008c0.17,0.045,0.348,0.071,0.532,0.071h7.525
					c1.125,0,2.037-0.912,2.037-2.037v-46.562C201.879,122.767,200.967,121.855,199.842,121.855z"/>
			</g>
		</g>
	</g>
</g>
</svg>
