<?xml version="1.0" encoding="iso-8859-1"?>
<!-- Generator: Adobe Illustrator 26.5.0, SVG Export Plug-In . SVG Version: 6.00 Build 0)  -->
<svg version="1.1" id="&#x30EC;&#x30A4;&#x30E4;&#x30FC;_1"
	 xmlns="http://www.w3.org/2000/svg" xmlns:xlink="http://www.w3.org/1999/xlink" x="0px" y="0px" viewBox="0 0 90 90"
	 style="enable-background:new 0 0 90 90;" xml:space="preserve">
<path style="fill:#2081E2;" d="M90,45c0,24.851-20.149,45-45,45S0,69.851,0,45S20.149,0,45,0C69.857,0,90,20.149,90,45z"/>
<path style="fill:#FFFFFF;" d="M22.201,46.512l0.194-0.305l11.706-18.313c0.171-0.268,0.573-0.24,0.703,0.051
	c1.956,4.383,3.643,9.834,2.853,13.227c-0.337,1.396-1.262,3.287-2.302,5.035c-0.134,0.254-0.282,0.504-0.439,0.744
	c-0.074,0.111-0.199,0.176-0.333,0.176H22.543C22.22,47.127,22.03,46.776,22.201,46.512z"/>
<path style="fill:#FFFFFF;" d="M74.38,49.915v2.899c0,0.166-0.102,0.314-0.25,0.379c-0.906,0.388-4.008,1.812-5.298,3.606
	c-3.292,4.582-5.807,11.133-11.429,11.133H33.949c-8.313,0-15.049-6.759-15.049-15.1v-0.268c0-0.222,0.18-0.402,0.402-0.402h13.075
	c0.259,0,0.449,0.24,0.425,0.495c-0.092,0.851,0.065,1.72,0.467,2.51c0.777,1.576,2.386,2.561,4.124,2.561h6.473v-5.053h-6.399
	c-0.328,0-0.522-0.379-0.333-0.647c0.069-0.106,0.148-0.217,0.231-0.342c0.606-0.86,1.47-2.196,2.33-3.717
	c0.587-1.026,1.156-2.122,1.613-3.222c0.092-0.199,0.167-0.402,0.24-0.601c0.125-0.351,0.254-0.68,0.347-1.008
	c0.092-0.277,0.166-0.569,0.24-0.841c0.217-0.934,0.31-1.923,0.31-2.95c0-0.402-0.019-0.823-0.056-1.225
	c-0.019-0.439-0.074-0.878-0.13-1.318c-0.037-0.388-0.106-0.772-0.18-1.174c-0.093-0.587-0.222-1.17-0.37-1.757l-0.051-0.222
	c-0.111-0.402-0.203-0.786-0.333-1.188c-0.365-1.262-0.786-2.492-1.23-3.643c-0.162-0.458-0.347-0.897-0.532-1.336
	c-0.273-0.661-0.55-1.262-0.804-1.831c-0.13-0.259-0.241-0.495-0.351-0.735c-0.125-0.273-0.254-0.545-0.384-0.805
	c-0.092-0.199-0.199-0.384-0.273-0.569l-0.791-1.461c-0.111-0.199,0.074-0.435,0.291-0.375l4.947,1.341h0.014
	c0.009,0,0.014,0.005,0.019,0.005l0.652,0.18l0.717,0.203l0.264,0.074v-2.94c0-1.419,1.137-2.571,2.543-2.571
	c0.703,0,1.341,0.287,1.798,0.754c0.458,0.467,0.744,1.105,0.744,1.817v4.364l0.527,0.148c0.042,0.014,0.083,0.032,0.12,0.06
	c0.129,0.097,0.314,0.24,0.55,0.416c0.185,0.148,0.384,0.328,0.624,0.513c0.476,0.384,1.045,0.878,1.669,1.447
	c0.166,0.143,0.328,0.291,0.476,0.439c0.805,0.749,1.706,1.627,2.566,2.598c0.24,0.273,0.476,0.55,0.717,0.841
	c0.24,0.296,0.495,0.587,0.717,0.879c0.291,0.388,0.606,0.791,0.878,1.211c0.129,0.199,0.277,0.402,0.402,0.601
	c0.351,0.532,0.661,1.082,0.957,1.632c0.125,0.254,0.254,0.532,0.365,0.805c0.328,0.735,0.587,1.484,0.754,2.233
	c0.051,0.162,0.088,0.337,0.106,0.495v0.037c0.055,0.222,0.074,0.458,0.092,0.698c0.074,0.767,0.037,1.535-0.129,2.307
	c-0.069,0.328-0.162,0.638-0.273,0.966c-0.111,0.314-0.222,0.643-0.365,0.952c-0.277,0.643-0.606,1.285-0.994,1.886
	c-0.125,0.222-0.273,0.458-0.421,0.68c-0.162,0.236-0.328,0.458-0.476,0.675c-0.203,0.277-0.421,0.569-0.643,0.827
	c-0.199,0.273-0.402,0.546-0.624,0.786c-0.31,0.365-0.606,0.712-0.915,1.045c-0.185,0.217-0.384,0.439-0.587,0.638
	c-0.199,0.222-0.402,0.421-0.587,0.606c-0.31,0.31-0.569,0.55-0.786,0.749l-0.509,0.467c-0.074,0.065-0.171,0.102-0.273,0.102
	h-3.939v5.053h4.956c1.11,0,2.164-0.393,3.014-1.114c0.291-0.254,1.563-1.355,3.065-3.014c0.051-0.056,0.116-0.097,0.19-0.116
	l13.69-3.958C74.121,49.452,74.38,49.647,74.38,49.915z"/>
</svg>
