<?xml version="1.0" encoding="iso-8859-1"?>
<!-- Generator: Adobe Illustrator 26.5.0, SVG Export Plug-In . SVG Version: 6.00 Build 0)  -->
<svg version="1.1" xmlns="http://www.w3.org/2000/svg" xmlns:xlink="http://www.w3.org/1999/xlink" x="0px" y="0px"
	 viewBox="0 0 512 512" style="enable-background:new 0 0 512 512;" xml:space="preserve">
<g id="&#x30EC;&#x30A4;&#x30E4;&#x30FC;_1" style="display:none;">
	<g style="display:inline;">
		<defs>
			<rect id="SVGID_1_" width="512" height="512"/>
		</defs>
		<clipPath id="SVGID_00000031200257438313213200000001644448816202835086_">
			<use xlink:href="#SVGID_1_"  style="overflow:visible;"/>
		</clipPath>
		<g transform="matrix(1 0 0 1 0 0)" style="clip-path:url(#SVGID_00000031200257438313213200000001644448816202835086_);">
			
				<image style="overflow:visible;" width="1125" height="624" xlink:href="../../&#x30D5;&#x309A;&#x30ED;&#x30D5;&#x30A3;&#x30FC;&#x30EB;/IMG_9044.jpg"  transform="matrix(0.84 0 0 0.84 -236.0001 0.5095)">
			</image>
		</g>
	</g>
</g>
<g id="&#x30EC;&#x30A4;&#x30E4;&#x30FC;_3">
	<rect style="fill:#A1E4FF;" width="512" height="512"/>
</g>
<g id="&#x30EC;&#x30A4;&#x30E4;&#x30FC;_2">
	<g>
		<rect x="389.111" y="156.29" style="fill:#FFFFFF;" width="66.445" height="199.9"/>
		<polygon style="fill:#FFFFFF;" points="189.247,223.022 189.247,156 189.247,89.559 255.693,89.559 288.93,89.559 289.085,89.559 
			388.768,89.559 388.768,156 289.085,156 288.93,156 255.693,156 255.693,223.022 322.425,223.022 322.425,289.462 
			255.693,289.462 189.247,289.462 		"/>
		<polygon style="fill:#FFFFFF;" points="56.444,356 56.444,156.29 122.889,156.29 122.889,356 222.478,356 222.734,356 
			388.768,356 388.768,422.441 222.734,422.441 222.478,422.441 122.889,422.441 56.444,422.441 		"/>
	</g>
</g>
<g id="&#x30EC;&#x30A4;&#x30E4;&#x30FC;_4" style="display:none;">
	<g style="display:inline;">
		<path style="fill:#006284;stroke:#000000;stroke-width:10;stroke-miterlimit:10;" d="M79.937,260.444
			c35.185-26.8,92.256,23.432,203.017,11.704s129.596-35.011,156.961-15.465s35.956,114.912-65.715,126.735
			c-95.764,11.136-59.566-12.95-232.348,4.694C69.211,395.531,19.066,306.809,79.937,260.444z"/>
		<circle cx="377.277" cy="177.745" r="40.439"/>
		<circle cx="124.9" cy="170.521" r="40.439"/>
		<polygon style="fill:#040000;stroke:#000000;stroke-linecap:round;stroke-linejoin:round;stroke-miterlimit:10;" points="
			103.825,254.496 150.223,320.437 175.913,269.057 		"/>
		<polygon style="fill:#040000;stroke:#000000;stroke-linecap:round;stroke-linejoin:round;stroke-miterlimit:10;" points="
			338.164,266.138 367.671,314.932 397.032,256.212 		"/>
	</g>
</g>
<g id="&#x30EC;&#x30A4;&#x30E4;&#x30FC;_5" style="display:none;">
	<g style="display:inline;">
		<g>
			<path d="M485.512,248.523c-1.906-5.959-4.499-11.74-7.721-17.222c-1.246-22.035-9.733-39.064-24.646-49.368
				c-0.064-0.044-0.129-0.088-0.193-0.13c-14.319-9.43-30.193-15.981-50.65-20.815c-0.214-5.036-2.231-9.762-5.755-13.427
				c-3.829-3.983-8.981-6.236-14.506-6.345l-2.527-0.05c-3.557-0.063-6.937,0.765-9.925,2.316c-2.923-1.663-6.275-2.628-9.813-2.697
				l-2.527-0.05c-5.531-0.109-10.761,1.94-14.743,5.77c-1.862,1.79-3.345,3.868-4.409,6.138c-12.243-0.504-27.005-0.866-44.72-1.301
				l-4.946-0.122c-3.459-5.767-9.647-9.745-16.757-10.086l-2.523-0.121c-4.223-0.2-8.211,0.862-11.583,2.869
				c-3.373-2.007-7.371-3.072-11.59-2.869l-2.529,0.121c-7.06,0.339-13.232,4.289-16.705,10.016
				c-2.687,0.067-5.315,0.131-7.885,0.194c-17.695,0.435-32.441,0.797-44.673,1.3c-1.063-2.27-2.547-4.348-4.409-6.138
				c-3.984-3.83-9.246-5.872-14.742-5.77l-2.529,0.05c-3.537,0.069-6.89,1.034-9.811,2.697c-2.989-1.551-6.402-2.38-9.924-2.316
				l-2.529,0.05c-5.525,0.108-10.676,2.362-14.506,6.345c-3.524,3.665-5.54,8.392-5.755,13.427
				c-20.456,4.834-36.331,11.385-50.65,20.815c-0.065,0.043-0.129,0.086-0.193,0.13c-14.908,10.3-23.395,27.323-24.644,49.349
				c-3.216,5.47-5.81,11.258-7.723,17.241c-6.377,19.936-5.685,42.379,1.949,63.194c8.069,22.004,20.628,35.449,40.356,46.198
				c13.072,7.122,32.07,13.349,47.009,13.348c17.782-0.001,43.496,0.636,66.33-13.571c28.993-18.038,48.541-46.335,48.541-46.335
				s9.377-14.893,24.822-14.893s24.822,14.342,24.822,14.342s13.239,31.993,47.438,46.886c34.2,14.893,82.09,18.145,110.722,2.544
				c19.727-10.749,36.037-29.647,44.107-51.651C490.504,287.77,491.889,268.459,485.512,248.523z"/>
			<g>
				
					<circle style="fill:#FFD4F5;stroke:#000000;stroke-width:6;stroke-linecap:round;stroke-linejoin:round;stroke-miterlimit:10;" cx="257.564" cy="236.467" r="13.79"/>
				
					<line style="fill:none;stroke:#000000;stroke-width:6;stroke-linecap:round;stroke-linejoin:round;stroke-miterlimit:10;" x1="257.012" y1="223.695" x2="257.012" y2="248.984"/>
			</g>
			<path style="fill:#666666;" d="M400.848,190.556H114.28c-38.611,0-69.911,31.3-69.911,69.911v2.491
				c0,38.611,31.3,69.912,69.911,69.912h69.378c10.253-29.745,39.456-51.217,73.907-51.217s63.654,21.472,73.906,51.217h69.378
				c38.611,0,69.912-31.3,69.912-69.912v-2.491C470.759,221.856,439.459,190.556,400.848,190.556z"/>
			<g>
				<defs>
					<path id="SVGID_00000158031245026165793930000017647016046454967191_" d="M400.848,190.556H114.28
						c-38.611,0-69.911,31.3-69.911,69.911v2.491c0,38.611,31.3,69.912,69.911,69.912h69.378
						c10.253-29.745,39.456-51.217,73.907-51.217s63.654,21.472,73.906,51.217h69.378c38.611,0,69.912-31.3,69.912-69.912v-2.491
						C470.759,221.856,439.459,190.556,400.848,190.556z"/>
				</defs>
				<clipPath id="SVGID_00000076595719769752011200000002834889313522197125_">
					<use xlink:href="#SVGID_00000158031245026165793930000017647016046454967191_"  style="overflow:visible;"/>
				</clipPath>
			</g>
			<path style="fill:none;stroke:#000000;stroke-width:10;stroke-linecap:round;stroke-linejoin:round;stroke-miterlimit:10;" d="
				M400.848,190.556H114.28c-38.611,0-69.911,31.3-69.911,69.911v2.491c0,38.611,31.3,69.912,69.911,69.912h69.378
				c10.253-29.745,39.456-51.217,73.907-51.217s63.654,21.472,73.906,51.217h69.378c38.611,0,69.912-31.3,69.912-69.912v-2.491
				C470.759,221.856,439.459,190.556,400.848,190.556z"/>
			<g>
				<circle style="fill:#CCCCCC;" cx="257.564" cy="236.467" r="13.79"/>
			</g>
			<circle style="fill:#FFFFFF;" cx="250.54" cy="231.375" r="4.002"/>
			<g>
				
					<circle style="fill:none;stroke:#000000;stroke-width:6;stroke-linecap:round;stroke-linejoin:round;stroke-miterlimit:10;" cx="257.564" cy="236.467" r="13.79"/>
				
					<line style="fill:none;stroke:#000000;stroke-width:6;stroke-linecap:round;stroke-linejoin:round;stroke-miterlimit:10;" x1="257.012" y1="223.695" x2="257.012" y2="248.984"/>
			</g>
			
				<path style="fill:#666666;stroke:#000000;stroke-width:10;stroke-linecap:round;stroke-linejoin:round;stroke-miterlimit:10;" d="
				M447.187,190.556c-22.616-14.893-48.541-20.961-81.086-25.374c-19.089-2.588-56.264-2.758-113.079-4.413l-1.103,24.822
				c28.662,0.913,54.303-1.99,80.427-0.111c63.357,4.555,80.09,5.076,99.396,17.211s36.406,34.2,33.096,57.367
				C464.839,260.058,477.525,211.517,447.187,190.556z"/>
			<circle style="fill:#FFFFFF;" cx="248.967" cy="161.462" r="4.002"/>
			
				<path style="fill:#666666;stroke:#000000;stroke-width:10;stroke-linecap:round;stroke-linejoin:round;stroke-miterlimit:10;" d="
				M302.767,260.445c0.309-2.213,5.966-38.656,36.297-57.128c42.83-26.084,118.875-6.598,136.467,48.399
				c11.285,35.279-2.741,81.24-40.088,101.589c-38.487,20.97-81.651,3.796-104.966-18.777
				C324.867,329.097,297.128,300.816,302.767,260.445z"/>
			
				<path style="fill:#666666;stroke:#000000;stroke-width:10;stroke-linecap:round;stroke-linejoin:round;stroke-miterlimit:10;" d="
				M65.098,190.556c22.616-14.893,48.541-20.961,81.086-25.374c19.089-2.588,56.264-2.758,113.079-4.413l1.103,24.822
				c-28.662,0.913-54.303-1.99-80.427-0.111c-63.357,4.555-80.09,5.076-99.396,17.211s-36.406,34.2-33.096,57.367
				C47.447,260.058,34.76,211.517,65.098,190.556z"/>
			
				<path style="fill:#666666;stroke:#000000;stroke-width:10;stroke-linecap:round;stroke-linejoin:round;stroke-miterlimit:10;" d="
				M209.518,260.445c-0.309-2.213-5.966-38.656-36.297-57.128c-42.83-26.084-118.875-6.598-136.467,48.399
				c-11.285,35.279,2.741,81.24,40.088,101.589c38.487,20.97,81.651,3.796,104.966-18.777
				C187.419,329.097,215.158,300.816,209.518,260.445z"/>
			<g>
				<path style="fill:#CCCCCC;" d="M284.631,273.982c-0.214-2.224-3.192-38.983,22.009-64.005
					c35.586-35.333,114.077-34.074,143.982,15.321c19.183,31.686,16.236,79.648-15.352,108.128
					c-32.551,29.349-78.527,22.689-106.455,6.16C322.097,335.608,288.54,314.557,284.631,273.982z"/>
				<g>
					<defs>
						<path id="SVGID_00000049934136032716339640000014043004542091127211_" d="M284.631,273.982
							c-0.214-2.224-3.192-38.983,22.009-64.005c35.586-35.333,114.077-34.074,143.982,15.321
							c19.183,31.686,16.236,79.648-15.352,108.128c-32.551,29.349-78.527,22.689-106.455,6.16
							C322.097,335.608,288.54,314.557,284.631,273.982z"/>
					</defs>
					<clipPath id="SVGID_00000114771184169128766870000004374477898325813425_">
						<use xlink:href="#SVGID_00000049934136032716339640000014043004542091127211_"  style="overflow:visible;"/>
					</clipPath>
					<path style="clip-path:url(#SVGID_00000114771184169128766870000004374477898325813425_);fill:#333333;" d="M455.461,198.83
						L311.492,349.97c0,0,100.944,62.331,155.001-2.206S455.461,198.83,455.461,198.83z"/>
				</g>
			</g>
			<path style="fill:none;stroke:#000000;stroke-width:10;stroke-linecap:round;stroke-linejoin:round;stroke-miterlimit:10;" d="
				M284.631,273.982c-0.214-2.224-3.192-38.983,22.009-64.005c35.586-35.333,114.077-34.074,143.982,15.321
				c19.183,31.686,16.245,77.442-15.342,105.922c-32.551,29.349-78.536,24.895-106.464,8.365
				C322.097,335.608,288.54,314.557,284.631,273.982z"/>
			<g>
				<g>
					<path style="fill:#CCCCCC;" d="M227.654,273.982c0.214-2.224,3.192-38.983-22.009-64.005
						c-35.586-35.333-114.077-34.074-143.982,15.321c-19.183,31.686-16.236,79.648,15.352,108.128
						c32.551,29.349,78.527,22.689,106.455,6.16C190.188,335.608,223.746,314.557,227.654,273.982z"/>
					<g>
						<defs>
							<path id="SVGID_00000056425425062342284830000010926067398538693052_" d="M227.654,273.982
								c0.214-2.224,3.192-38.983-22.009-64.005c-35.586-35.333-114.077-34.074-143.982,15.321
								c-19.183,31.686-16.236,79.648,15.352,108.128c32.551,29.349,78.527,22.689,106.455,6.16
								C190.188,335.608,223.746,314.557,227.654,273.982z"/>
						</defs>
						<clipPath id="SVGID_00000133524703415424101470000006587330025423514262_">
							<use xlink:href="#SVGID_00000056425425062342284830000010926067398538693052_"  style="overflow:visible;"/>
						</clipPath>
						<path style="clip-path:url(#SVGID_00000133524703415424101470000006587330025423514262_);fill:#333333;" d="M208.343,196.072
							L69.338,345.557c0,0,83.844,43.025,142.866-20.409S208.343,196.072,208.343,196.072z"/>
					</g>
				</g>
				<path style="fill:none;stroke:#000000;stroke-width:10;stroke-linecap:round;stroke-linejoin:round;stroke-miterlimit:10;" d="
					M227.654,273.982c0.214-2.224,3.192-38.983-22.009-64.005c-35.586-35.333-114.077-34.074-143.982,15.321
					c-19.183,31.686-16.627,75.701,14.96,104.181c32.551,29.349,78.918,26.636,106.846,10.106
					C190.188,335.608,223.746,314.557,227.654,273.982z"/>
			</g>
			
				<line style="fill:none;stroke:#000000;stroke-width:10;stroke-linecap:round;stroke-linejoin:round;stroke-miterlimit:10;" x1="426.227" y1="343.351" x2="435.604" y2="353.28"/>
			
				<line style="fill:none;stroke:#000000;stroke-width:10;stroke-linecap:round;stroke-linejoin:round;stroke-miterlimit:10;" x1="446.085" y1="321.286" x2="459.323" y2="329.561"/>
			
				<line style="fill:none;stroke:#000000;stroke-width:10;stroke-linecap:round;stroke-linejoin:round;stroke-miterlimit:10;" x1="459.323" y1="298.671" x2="475.32" y2="304.187"/>
			
				<line style="fill:none;stroke:#000000;stroke-width:10;stroke-linecap:round;stroke-linejoin:round;stroke-miterlimit:10;" x1="465.391" y1="272.745" x2="478.078" y2="268.332"/>
			
				<line style="fill:none;stroke:#000000;stroke-width:10;stroke-linecap:round;stroke-linejoin:round;stroke-miterlimit:10;" x1="85.334" y1="343.351" x2="81.473" y2="352.176"/>
			
				<line style="fill:none;stroke:#000000;stroke-width:10;stroke-linecap:round;stroke-linejoin:round;stroke-miterlimit:10;" x1="61.064" y1="319.08" x2="55.548" y2="330.112"/>
			
				<line style="fill:none;stroke:#000000;stroke-width:10;stroke-linecap:round;stroke-linejoin:round;stroke-miterlimit:10;" x1="48.929" y1="293.706" x2="36.242" y2="299.774"/>
			<g>
				
					<path style="fill:#999999;stroke:#000000;stroke-width:7;stroke-linecap:round;stroke-linejoin:round;stroke-miterlimit:10;" d="
					M270.28,190.218l-4.433-0.212c-5.103-0.245-9.041-4.579-8.797-9.682l0.963-20.089c0.245-5.103,4.579-9.041,9.682-8.797
					l4.433,0.212c5.103,0.245,9.041,4.579,8.797,9.682l-0.963,20.089C279.718,186.524,275.383,190.462,270.28,190.218z"/>
				
					<path style="fill:#999999;stroke:#000000;stroke-width:7;stroke-linecap:round;stroke-linejoin:round;stroke-miterlimit:10;" d="
					M244.847,190.218l4.433-0.212c5.103-0.245,9.041-4.579,8.797-9.682l-0.963-20.089c-0.245-5.103-4.579-9.041-9.682-8.797
					l-4.433,0.212c-5.103,0.245-9.041,4.579-8.797,9.682l0.963,20.089C235.41,186.524,239.745,190.462,244.847,190.218z"/>
			</g>
			
				<line style="fill:none;stroke:#000000;stroke-width:10;stroke-linecap:round;stroke-linejoin:round;stroke-miterlimit:10;" x1="44.368" y1="262.959" x2="36.242" y2="264.471"/>
			<circle style="fill:#FFFFFF;" cx="242.509" cy="161.288" r="4.002"/>
			<circle style="fill:#FFFFFF;" cx="266.537" cy="160.769" r="4.002"/>
			<path style="fill:#999999;stroke:#000000;stroke-width:7;stroke-linecap:round;stroke-linejoin:round;stroke-miterlimit:10;" d="
				M130.253,190.318l4.438-0.087c5.108-0.1,9.167-4.322,9.066-9.43l-0.395-20.109c-0.1-5.108-4.322-9.167-9.43-9.066l-4.438,0.087
				c-5.108,0.1-9.167,4.322-9.067,9.43l0.395,20.109C120.924,186.359,125.145,190.419,130.253,190.318z"/>
			<path style="fill:#999999;stroke:#000000;stroke-width:7;stroke-linecap:round;stroke-linejoin:round;stroke-miterlimit:10;" d="
				M152.518,189.888l4.438-0.087c5.108-0.1,9.167-4.322,9.066-9.43l-0.395-20.109c-0.1-5.108-4.322-9.167-9.43-9.067l-4.438,0.087
				c-5.108,0.1-9.167,4.322-9.066,9.43l0.395,20.109C143.188,185.929,147.41,189.988,152.518,189.888z"/>
			<circle style="fill:#FFFFFF;" cx="151.251" cy="160.218" r="4.002"/>
			<circle style="fill:#FFFFFF;" cx="127.981" cy="160.358" r="4.002"/>
			<path style="fill:#999999;stroke:#000000;stroke-width:7;stroke-linecap:round;stroke-linejoin:round;stroke-miterlimit:10;" d="
				M382.032,190.318l-4.438-0.087c-5.108-0.1-9.167-4.322-9.066-9.43l0.395-20.109c0.1-5.108,4.322-9.167,9.43-9.066l4.438,0.087
				c5.108,0.1,9.167,4.322,9.066,9.43l-0.395,20.109C391.362,186.359,387.14,190.419,382.032,190.318z"/>
			<path style="fill:#999999;stroke:#000000;stroke-width:7;stroke-linecap:round;stroke-linejoin:round;stroke-miterlimit:10;" d="
				M359.767,189.888l-4.438-0.087c-5.108-0.1-9.167-4.322-9.066-9.43l0.395-20.109c0.1-5.108,4.322-9.167,9.43-9.067l4.438,0.087
				c5.108,0.1,9.167,4.322,9.067,9.43l-0.395,20.109C369.097,185.929,364.875,189.988,359.767,189.888z"/>
			<circle style="fill:#FFFFFF;" cx="354.817" cy="161.13" r="4.002"/>
			<circle style="fill:#FFFFFF;" cx="377.175" cy="160.907" r="4.002"/>
		</g>
	</g>
</g>
<g id="&#x30EC;&#x30A4;&#x30E4;&#x30FC;_5&#x306E;&#x30B3;&#x30D4;&#x30FC;" style="display:none;">
	<g style="display:inline;">
		<g>
			<path style="fill:#FFFFFF;" d="M485.512,248.523c-1.906-5.959-4.499-11.74-7.721-17.222
				c-1.246-22.035-9.733-39.064-24.646-49.368c-0.064-0.044-0.129-0.088-0.193-0.13c-14.319-9.43-30.193-15.981-50.65-20.815
				c-0.214-5.036-2.231-9.762-5.755-13.427c-3.829-3.983-8.981-6.236-14.506-6.345l-2.527-0.05
				c-3.557-0.063-6.937,0.765-9.925,2.316c-2.923-1.663-6.275-2.628-9.813-2.697l-2.527-0.05c-5.531-0.109-10.761,1.94-14.743,5.77
				c-1.862,1.79-3.345,3.868-4.409,6.138c-12.243-0.504-27.005-0.866-44.72-1.301l-4.946-0.122
				c-3.459-5.767-9.647-9.745-16.757-10.086l-2.523-0.121c-4.223-0.2-8.211,0.862-11.583,2.869
				c-3.373-2.007-7.371-3.072-11.59-2.869l-2.529,0.121c-7.06,0.339-13.232,4.289-16.705,10.016
				c-2.687,0.067-5.315,0.131-7.885,0.194c-17.695,0.435-32.441,0.797-44.673,1.3c-1.063-2.27-2.547-4.348-4.409-6.138
				c-3.984-3.83-9.246-5.872-14.742-5.77l-2.529,0.05c-3.537,0.069-6.89,1.034-9.811,2.697c-2.989-1.551-6.402-2.38-9.924-2.316
				l-2.529,0.05c-5.525,0.108-10.676,2.362-14.506,6.345c-3.524,3.665-5.54,8.392-5.755,13.427
				c-20.456,4.834-36.331,11.385-50.65,20.815c-0.065,0.043-0.129,0.086-0.193,0.13c-14.908,10.3-23.395,27.323-24.644,49.349
				c-3.216,5.47-5.81,11.258-7.723,17.241c-6.377,19.936-5.685,42.379,1.949,63.194c8.069,22.004,20.628,35.449,40.356,46.198
				c13.072,7.122,32.07,13.349,47.009,13.348c17.782-0.001,43.496,0.636,66.33-13.571c28.993-18.038,48.541-46.335,48.541-46.335
				s9.377-14.893,24.822-14.893s24.822,14.342,24.822,14.342s13.239,31.993,47.438,46.886c34.2,14.893,82.09,18.145,110.722,2.544
				c19.727-10.749,36.037-29.647,44.107-51.651C490.504,287.77,491.889,268.459,485.512,248.523z"/>
			<g>
				<g>
					<circle style="fill:#FFD4F5;" cx="257.564" cy="236.467" r="13.79"/>
					<path d="M257.563,253.257c-9.258,0-16.79-7.532-16.79-16.791c0-9.258,7.532-16.79,16.79-16.79s16.79,7.532,16.79,16.79
						C274.354,245.725,266.821,253.257,257.563,253.257z M257.563,225.676c-5.949,0-10.79,4.84-10.79,10.79
						s4.84,10.791,10.79,10.791s10.79-4.841,10.79-10.791S263.513,225.676,257.563,225.676z"/>
				</g>
				<path d="M257.013,251.984c-1.657,0-3-1.343-3-3v-25.289c0-1.657,1.343-3,3-3c1.657,0,3,1.343,3,3v25.289
					C260.013,250.641,258.67,251.984,257.013,251.984z"/>
			</g>
			<path style="fill:#A1E4FF;" d="M400.848,190.556H114.28c-38.611,0-69.911,31.3-69.911,69.911v2.491
				c0,38.611,31.3,69.912,69.911,69.912h69.378c10.253-29.745,39.456-51.217,73.907-51.217s63.654,21.472,73.906,51.217h69.378
				c38.611,0,69.912-31.3,69.912-69.912v-2.491C470.759,221.856,439.459,190.556,400.848,190.556z"/>
			<g>
				<defs>
					<path id="SVGID_00000129177341657555620510000016425064550039357365_" d="M400.848,190.556H114.28
						c-38.611,0-69.911,31.3-69.911,69.911v2.491c0,38.611,31.3,69.912,69.911,69.912h69.378
						c10.253-29.745,39.456-51.217,73.907-51.217s63.654,21.472,73.906,51.217h69.378c38.611,0,69.912-31.3,69.912-69.912v-2.491
						C470.759,221.856,439.459,190.556,400.848,190.556z"/>
				</defs>
				<clipPath id="SVGID_00000101104938561377770910000015497609879007429780_">
					<use xlink:href="#SVGID_00000129177341657555620510000016425064550039357365_"  style="overflow:visible;"/>
				</clipPath>
			</g>
			<path style="fill:#FFFFFF;" d="M400.848,337.87h-69.377c-2.134,0-4.032-1.354-4.727-3.37
				c-9.865-28.619-37.667-47.847-69.181-47.847s-59.315,19.228-69.179,47.846c-0.695,2.018-2.594,3.371-4.727,3.371H114.28
				c-41.307,0-74.912-33.605-74.912-74.911v-2.491c0-41.307,33.605-74.912,74.912-74.912h286.568
				c41.307,0,74.912,33.605,74.912,74.912v2.491C475.76,304.265,442.154,337.87,400.848,337.87z M334.949,327.87h65.898
				c35.793,0,64.912-29.119,64.912-64.911v-2.491c0-35.792-29.119-64.912-64.912-64.912H114.28
				c-35.792,0-64.912,29.119-64.912,64.912v2.491c0,35.792,29.119,64.911,64.912,64.911h65.899
				c12.21-30.782,42.851-51.217,77.385-51.217S322.738,297.088,334.949,327.87z"/>
			<g>
				<circle style="fill:#CCCCCC;" cx="257.564" cy="236.467" r="13.79"/>
			</g>
			<circle style="fill:#FFFFFF;" cx="250.54" cy="231.375" r="4.002"/>
			<g>
				<path d="M257.563,253.257c-9.258,0-16.79-7.532-16.79-16.791c0-9.258,7.532-16.79,16.79-16.79s16.79,7.532,16.79,16.79
					C274.354,245.725,266.821,253.257,257.563,253.257z M257.563,225.676c-5.949,0-10.79,4.84-10.79,10.79s4.84,10.791,10.79,10.791
					s10.79-4.841,10.79-10.791S263.513,225.676,257.563,225.676z"/>
				<path d="M257.013,251.984c-1.657,0-3-1.343-3-3v-25.289c0-1.657,1.343-3,3-3c1.657,0,3,1.343,3,3v25.289
					C260.013,250.641,258.67,251.984,257.013,251.984z"/>
			</g>
			<g>
				<path style="fill:#A1E4FF;" d="M447.187,190.556c-22.616-14.893-48.541-20.961-81.086-25.374
					c-19.089-2.588-56.264-2.758-113.079-4.413l-1.103,24.822c28.662,0.913,54.303-1.99,80.427-0.111
					c63.357,4.555,80.09,5.076,99.396,17.211s36.406,34.2,33.096,57.367C464.839,260.058,477.525,211.517,447.187,190.556z"/>
				<path d="M464.843,265.06c-0.327,0-0.658-0.032-0.991-0.1c-2.599-0.523-4.337-2.984-3.963-5.608
					c2.157-15.101-6.532-37.168-30.808-52.427c-17.114-10.758-31.793-11.803-86.406-15.694l-10.688-0.764
					c-14.146-1.018-28.084-0.609-42.84-0.177c-11.982,0.35-24.373,0.713-37.388,0.299c-1.336-0.042-2.6-0.619-3.509-1.599
					c-0.908-0.981-1.386-2.285-1.327-3.621l1.103-24.822c0.122-2.729,2.388-4.849,5.141-4.776
					c14.737,0.43,28.306,0.763,40.279,1.057c35.48,0.871,58.92,1.446,73.327,3.4c32.843,4.453,59.554,10.604,83.164,26.153
					c0.031,0.021,0.062,0.041,0.092,0.062c32.842,22.69,20.201,72.76,19.647,74.881C469.092,263.56,467.073,265.06,464.843,265.06z
					 M312.442,179.831c6.74,0,13.449,0.172,20.262,0.662l10.682,0.764c55.143,3.928,71.785,5.114,91.018,17.202
					c10.801,6.789,20.246,16.061,26.595,26.108c0.219,0.346,0.433,0.691,0.644,1.038c-1.668-11.47-6.327-23.333-17.251-30.903
					c-22.021-14.486-47.495-20.298-78.961-24.564c-13.86-1.879-38.343-2.48-72.229-3.312c-10.639-0.261-22.538-0.553-35.402-0.917
					l-0.658,14.809c10.904,0.188,21.461-0.123,31.715-0.422C296.889,180.059,304.687,179.831,312.442,179.831z"/>
			</g>
			<circle style="fill:#FFFFFF;" cx="248.967" cy="161.462" r="4.002"/>
			<g>
				<path style="fill:#A1E4FF;" d="M302.767,260.445c0.309-2.213,5.966-38.656,36.297-57.128
					c42.83-26.084,118.875-6.598,136.467,48.399c11.285,35.279-2.741,81.24-40.088,101.589
					c-38.487,20.97-81.651,3.796-104.966-18.777C324.867,329.097,297.128,300.816,302.767,260.445z"/>
				<path style="fill:#FFFFFF;" d="M398.098,367.751c-27.565,0-53.911-12.99-71.099-29.632
					c-8.293-8.028-34.905-37.406-29.185-78.366c0-0.001,0-0.001,0-0.001c0.232-1.659,6.059-40.858,38.648-60.706
					c23.467-14.292,56.796-16.175,86.984-4.912c28.082,10.477,48.801,30.91,56.846,56.058c6.007,18.781,5.341,39.961-1.876,59.639
					c-7.611,20.754-22.023,37.752-40.582,47.864C424.896,364.745,411.355,367.751,398.098,367.751z M307.719,261.136
					L307.719,261.136c-5.069,36.29,18.8,62.6,26.235,69.8c22.911,22.181,63.694,37.271,99.096,17.979
					c36.418-19.843,47.776-64.228,37.718-95.675c-7.104-22.209-25.626-40.337-50.816-49.736
					c-27.378-10.214-57.378-8.651-78.287,4.083C313.082,224.994,307.926,259.652,307.719,261.136z"/>
			</g>
			<g>
				<path style="fill:#A1E4FF;" d="M65.098,190.556c22.616-14.893,48.541-20.961,81.086-25.374
					c19.089-2.588,56.264-2.758,113.079-4.413l1.103,24.822c-28.662,0.913-54.303-1.99-80.427-0.111
					c-63.357,4.555-80.09,5.076-99.396,17.211s-36.406,34.2-33.096,57.367C47.447,260.058,34.76,211.517,65.098,190.556z"/>
				<path d="M47.442,265.06c-2.23,0-4.249-1.5-4.833-3.736c-0.554-2.121-13.195-52.19,19.646-74.881
					c0.031-0.021,0.062-0.042,0.092-0.062c23.61-15.548,50.321-21.7,83.164-26.153c14.407-1.954,37.847-2.529,73.328-3.4
					c11.972-0.294,25.542-0.627,40.278-1.057c2.719-0.095,5.02,2.046,5.141,4.776l1.103,24.822c0.06,1.335-0.419,2.639-1.327,3.62
					c-0.909,0.98-2.173,1.557-3.509,1.599c-13.017,0.415-25.406,0.052-37.388-0.299c-14.756-0.432-28.693-0.84-42.839,0.177
					l-10.688,0.764c-54.613,3.891-69.291,4.936-86.406,15.694c-24.275,15.258-32.964,37.326-30.807,52.427
					c0.375,2.624-1.364,5.085-3.962,5.608C48.102,265.027,47.77,265.06,47.442,265.06z M67.896,194.701
					c-10.924,7.571-15.584,19.433-17.252,30.904c0.21-0.346,0.425-0.692,0.643-1.038c6.35-10.047,15.794-19.32,26.595-26.109
					c19.231-12.088,35.874-13.273,91.017-17.202l10.682-0.764c14.65-1.052,28.833-0.638,43.849-0.198
					c10.253,0.3,20.806,0.61,31.715,0.422l-0.658-14.809c-12.864,0.363-24.763,0.655-35.402,0.917
					c-33.886,0.832-58.369,1.433-72.229,3.312C115.39,174.403,89.917,180.215,67.896,194.701z"/>
			</g>
			<g>
				<path style="fill:#A1E4FF;" d="M209.518,260.445c-0.309-2.213-5.966-38.656-36.297-57.128
					c-42.83-26.084-118.875-6.598-136.467,48.399c-11.285,35.279,2.741,81.24,40.088,101.589
					c38.487,20.97,81.651,3.796,104.966-18.777C187.419,329.097,215.158,300.816,209.518,260.445z"/>
				<path style="fill:#FFFFFF;" d="M114.188,367.751c-13.26,0.001-26.797-3.005-39.737-10.056
					c-18.559-10.112-32.971-27.11-40.583-47.864c-7.217-19.678-7.882-40.857-1.875-59.639c8.044-25.149,28.764-45.581,56.846-56.058
					c30.186-11.262,63.517-9.38,86.983,4.912c32.597,19.853,38.416,59.044,38.648,60.707l0,0
					c5.721,40.96-20.891,70.338-29.184,78.367C168.1,354.759,141.75,367.749,114.188,367.751z M128.882,196.809
					c-12.028,0-24.539,2.214-36.547,6.694c-25.19,9.398-43.713,27.526-50.817,49.736c-10.059,31.447,1.299,75.832,37.717,95.675
					c35.404,19.293,76.186,4.202,99.096-17.979c7.437-7.2,31.305-33.51,26.235-69.8l0,0c-0.205-1.467-5.347-36.132-33.945-53.549
					C158.883,200.438,144.278,196.809,128.882,196.809z"/>
			</g>
			<g>
				<path style="fill:#FFFFFF;" d="M284.631,273.982c-0.214-2.224-3.192-38.983,22.009-64.005
					c35.586-35.333,114.077-34.074,143.982,15.321c19.183,31.686,16.236,79.648-15.352,108.128
					c-32.551,29.349-78.527,22.689-106.455,6.16C322.097,335.608,288.54,314.557,284.631,273.982z"/>
				<g>
					<defs>
						<path id="SVGID_00000008831230010754858920000004680599448274760609_" d="M284.631,273.982
							c-0.214-2.224-3.192-38.983,22.009-64.005c35.586-35.333,114.077-34.074,143.982,15.321
							c19.183,31.686,16.236,79.648-15.352,108.128c-32.551,29.349-78.527,22.689-106.455,6.16
							C322.097,335.608,288.54,314.557,284.631,273.982z"/>
					</defs>
					<clipPath id="SVGID_00000100376134198379724420000014428336808190721180_">
						<use xlink:href="#SVGID_00000008831230010754858920000004680599448274760609_"  style="overflow:visible;"/>
					</clipPath>
					<path style="clip-path:url(#SVGID_00000100376134198379724420000014428336808190721180_);fill:#A1E4FF;" d="M455.461,198.83
						L311.492,349.97c0,0,100.944,62.331,155.001-2.206S455.461,198.83,455.461,198.83z"/>
				</g>
			</g>
			<path style="fill:#FFFFFF;" d="M377.924,357.637c-18.106,0-36.797-4.955-51.654-13.749c-9.933-5.879-42.649-28.26-46.615-69.427
				v-0.001c-0.161-1.667-3.616-41.144,23.464-68.032c19.497-19.358,51.477-28.944,83.453-25.015
				c29.749,3.656,54.654,18.707,68.329,41.294c10.2,16.848,14.48,37.216,12.055,57.351c-2.559,21.223-12.618,40.711-28.326,54.875
				c-15.817,14.261-35.938,22.101-58.186,22.671C379.605,357.626,378.765,357.637,377.924,357.637z M289.607,273.502
				c3.515,36.474,32.849,56.509,41.756,61.78c27.584,16.325,70.987,18.898,100.568-7.776c14.116-12.727,22.793-29.547,25.095-48.644
				c2.16-17.927-1.633-36.03-10.681-50.976c-12.076-19.947-34.309-33.268-60.994-36.547c-29.011-3.565-57.816,4.937-75.188,22.186
				C286.407,237.112,289.466,272.028,289.607,273.502L289.607,273.502z"/>
			<g>
				<g>
					<path style="fill:#FFFFFF;" d="M227.654,273.982c0.214-2.224,3.192-38.983-22.009-64.005
						c-35.586-35.333-114.077-34.074-143.982,15.321c-19.183,31.686-16.236,79.648,15.352,108.128
						c32.551,29.349,78.527,22.689,106.455,6.16C190.188,335.608,223.746,314.557,227.654,273.982z"/>
					<g>
						<defs>
							<path id="SVGID_00000165957258972068208620000009579827070849515159_" d="M227.654,273.982
								c0.214-2.224,3.192-38.983-22.009-64.005c-35.586-35.333-114.077-34.074-143.982,15.321
								c-19.183,31.686-16.236,79.648,15.352,108.128c32.551,29.349,78.527,22.689,106.455,6.16
								C190.188,335.608,223.746,314.557,227.654,273.982z"/>
						</defs>
						<clipPath id="SVGID_00000012448455733158903620000004493710296854065055_">
							<use xlink:href="#SVGID_00000165957258972068208620000009579827070849515159_"  style="overflow:visible;"/>
						</clipPath>
						<path style="clip-path:url(#SVGID_00000012448455733158903620000004493710296854065055_);fill:#A1E4FF;" d="M208.343,196.072
							L69.338,345.557c0,0,83.844,43.025,142.866-20.409S208.343,196.072,208.343,196.072z"/>
					</g>
				</g>
				<path style="fill:#FFFFFF;" d="M136.49,356.908c-21.834,0-44.665-6.991-63.215-23.716
					c-15.928-14.361-25.657-33.04-28.136-54.016c-2.312-19.553,2.038-39.607,12.247-56.469
					c13.675-22.587,38.579-37.638,68.328-41.294c31.978-3.933,63.957,5.655,83.455,25.015
					c27.087,26.896,23.624,66.366,23.463,68.033c-3.965,41.169-36.683,63.549-46.616,69.427
					C172.247,352.037,154.715,356.908,136.49,356.908z M140.007,190.538c-4.329,0-8.698,0.263-13.075,0.801
					c-26.686,3.279-48.917,16.601-60.993,36.547c-9.061,14.966-12.921,32.765-10.871,50.117
					c2.19,18.532,10.801,35.049,24.902,47.762c17.884,16.125,38.176,20.308,52.049,20.978c17.367,0.835,35.181-3.339,48.901-11.46
					c8.907-5.271,38.242-25.306,41.755-61.78l0,0c0.142-1.475,3.208-36.383-20.555-59.978
					C187.371,198.878,164.369,190.538,140.007,190.538z"/>
			</g>
			<path style="fill:#FFFFFF;" d="M435.605,358.279c-1.328,0-2.652-0.525-3.636-1.566l-9.378-9.929
				c-1.896-2.008-1.806-5.173,0.201-7.068c2.009-1.897,5.173-1.805,7.068,0.201l9.378,9.929c1.896,2.008,1.806,5.173-0.201,7.068
				C438.071,357.827,436.837,358.279,435.605,358.279z"/>
			<path style="fill:#FFFFFF;" d="M459.318,334.562c-0.905,0-1.821-0.246-2.646-0.761l-13.238-8.274
				c-2.342-1.464-3.053-4.549-1.59-6.891c1.465-2.342,4.549-3.052,6.891-1.59l13.238,8.274c2.342,1.464,3.053,4.549,1.59,6.891
				C462.614,333.729,460.985,334.562,459.318,334.562z"/>
			<path style="fill:#FFFFFF;" d="M475.319,309.188c-0.54,0-1.09-0.088-1.63-0.274l-15.996-5.516
				c-2.61-0.899-3.997-3.746-3.097-6.356c0.899-2.609,3.741-4,6.356-3.097l15.996,5.516c2.61,0.899,3.997,3.746,3.097,6.356
				C479.332,307.887,477.394,309.188,475.319,309.188z"/>
			<path style="fill:#FFFFFF;" d="M465.391,277.746c-2.069,0-4.004-1.294-4.723-3.358c-0.907-2.608,0.472-5.458,3.08-6.365
				l12.688-4.413c2.609-0.906,5.457,0.472,6.365,3.08c0.907,2.608-0.472,5.458-3.08,6.365l-12.688,4.413
				C466.489,277.656,465.936,277.746,465.391,277.746z"/>
			<path style="fill:#FFFFFF;" d="M81.471,357.178c-0.669,0-1.349-0.135-2.001-0.42c-2.53-1.107-3.684-4.056-2.577-6.585
				l3.861-8.826c1.107-2.531,4.055-3.684,6.585-2.577c2.53,1.107,3.684,4.056,2.577,6.585l-3.861,8.826
				C85.232,356.059,83.396,357.178,81.471,357.178z"/>
			<path style="fill:#FFFFFF;" d="M55.544,335.113c-0.751,0-1.514-0.17-2.232-0.529c-2.47-1.234-3.471-4.238-2.236-6.708
				l5.516-11.032c1.234-2.471,4.237-3.472,6.708-2.235c2.47,1.234,3.471,4.238,2.236,6.708l-5.516,11.032
				C59.144,334.101,57.378,335.113,55.544,335.113z"/>
			<path style="fill:#FFFFFF;" d="M36.245,304.774c-1.865,0-3.656-1.049-4.514-2.844c-1.191-2.491-0.138-5.477,2.354-6.668
				l12.687-6.067c2.491-1.191,5.477-0.138,6.668,2.354c1.191,2.491,0.138,5.477-2.354,6.668l-12.687,6.067
				C37.703,304.617,36.968,304.774,36.245,304.774z"/>
			<g>
				<g>
					<path style="fill:#A1E4FF;" d="M270.28,190.218l-4.433-0.212c-5.103-0.245-9.041-4.579-8.797-9.682l0.963-20.089
						c0.245-5.103,4.579-9.041,9.682-8.797l4.433,0.212c5.103,0.245,9.041,4.579,8.797,9.682l-0.963,20.089
						C279.718,186.524,275.383,190.462,270.28,190.218z"/>
					<path d="M270.73,193.729c-0.205,0-0.411-0.005-0.618-0.015l-4.433-0.212c-3.402-0.163-6.537-1.641-8.827-4.162
						c-2.291-2.521-3.461-5.782-3.298-9.184l0.963-20.089c0.163-3.402,1.641-6.537,4.161-8.827c2.521-2.29,5.789-3.456,9.185-3.299
						l4.434,0.212c7.021,0.337,12.461,6.323,12.125,13.346l-0.963,20.089C283.132,188.404,277.482,193.729,270.73,193.729z
						 M267.246,154.926c-1.432,0-2.793,0.525-3.859,1.494c-1.138,1.033-1.804,2.447-1.877,3.981l-0.963,20.089
						c-0.074,1.534,0.454,3.005,1.487,4.142c1.032,1.137,2.446,1.804,3.98,1.877l4.434,0.212l0,0
						c3.126,0.136,5.866-2.301,6.019-5.469l0.963-20.089c0.151-3.167-2.302-5.867-5.469-6.019l-4.434-0.212
						C267.434,154.929,267.34,154.926,267.246,154.926z"/>
				</g>
				<g>
					<path style="fill:#A1E4FF;" d="M244.847,190.218l4.433-0.212c5.103-0.245,9.041-4.579,8.797-9.682l-0.963-20.089
						c-0.245-5.103-4.579-9.041-9.682-8.797l-4.433,0.212c-5.103,0.245-9.041,4.579-8.797,9.682l0.963,20.089
						C235.41,186.524,239.745,190.462,244.847,190.218z"/>
					<path d="M244.39,193.729c-3.174,0-6.193-1.164-8.559-3.313c-2.521-2.29-3.999-5.425-4.162-8.827l-0.963-20.089
						c-0.336-7.022,5.104-13.009,12.125-13.346l4.433-0.212c3.396-0.163,6.663,1.008,9.184,3.299
						c2.521,2.29,3.999,5.425,4.162,8.827l0.963,20.089c0.163,3.401-1.008,6.663-3.299,9.184c-2.29,2.521-5.424,3.999-8.826,4.162
						l-4.434,0.212C244.806,193.724,244.598,193.729,244.39,193.729z M247.881,154.926c-0.094,0-0.188,0.002-0.282,0.007
						l-4.433,0.212c-3.167,0.152-5.62,2.852-5.468,6.019l0.963,20.089c0.073,1.534,0.74,2.948,1.877,3.981
						c1.137,1.033,2.605,1.557,4.142,1.487l0,0l4.434-0.212c1.534-0.073,2.948-0.74,3.98-1.877s1.561-2.607,1.487-4.141
						l-0.963-20.09c-0.073-1.534-0.74-2.948-1.877-3.981C250.675,155.451,249.313,154.926,247.881,154.926z"/>
				</g>
			</g>
			<path style="fill:#FFFFFF;" d="M36.236,269.472c-2.361,0-4.462-1.681-4.91-4.087c-0.505-2.715,1.286-5.325,4.001-5.83
				l8.126-1.512c2.713-0.508,5.325,1.286,5.83,4.002c0.505,2.715-1.286,5.325-4.001,5.83l-8.126,1.512
				C36.847,269.444,36.54,269.472,36.236,269.472z"/>
			<circle style="fill:#FFFFFF;" cx="242.509" cy="161.288" r="4.002"/>
			<circle style="fill:#FFFFFF;" cx="266.537" cy="160.769" r="4.002"/>
			<g>
				<path style="fill:#A1E4FF;" d="M130.253,190.318l4.438-0.087c5.108-0.1,9.167-4.322,9.066-9.43l-0.395-20.109
					c-0.1-5.108-4.322-9.167-9.43-9.066l-4.438,0.087c-5.108,0.1-9.167,4.322-9.067,9.43l0.395,20.109
					C120.924,186.359,125.145,190.419,130.253,190.318z"/>
				<path d="M130.068,193.82c-6.916,0-12.608-5.556-12.744-12.5l-0.395-20.108c-0.067-3.405,1.196-6.632,3.557-9.087
					s5.536-3.844,8.941-3.911l4.437-0.087c3.4-0.054,6.632,1.196,9.087,3.557c2.455,2.36,3.844,5.536,3.911,8.941l0.396,20.108
					c0.066,3.405-1.197,6.632-3.557,9.087s-5.536,3.844-8.941,3.911l-4.437,0.087c0,0,0,0,0,0
					C130.237,193.819,130.152,193.82,130.068,193.82z M130.253,190.318h0.01H130.253z M134.116,155.124
					c-0.039,0-0.077,0-0.116,0.001l-4.437,0.087c-1.536,0.03-2.968,0.656-4.032,1.763c-1.064,1.107-1.634,2.562-1.604,4.098
					l0.395,20.109c0.062,3.17,2.707,5.734,5.861,5.636l4.438-0.087c1.536-0.03,2.968-0.656,4.032-1.763
					c1.064-1.107,1.634-2.563,1.604-4.099l-0.396-20.108c-0.03-1.536-0.656-2.968-1.763-4.032
					C137.02,155.692,135.609,155.124,134.116,155.124z"/>
			</g>
			<g>
				<path style="fill:#A1E4FF;" d="M152.518,189.888l4.438-0.087c5.108-0.1,9.167-4.322,9.066-9.43l-0.395-20.109
					c-0.1-5.108-4.322-9.167-9.43-9.067l-4.438,0.087c-5.108,0.1-9.167,4.322-9.066,9.43l0.395,20.109
					C143.188,185.929,147.41,189.988,152.518,189.888z"/>
				<path d="M152.333,193.39c-6.915,0-12.608-5.556-12.745-12.5l-0.395-20.109c-0.067-3.405,1.196-6.632,3.557-9.087
					s5.536-3.844,8.941-3.911l4.437-0.087c7.022-0.132,12.86,5.469,12.999,12.497l0.395,20.109c0.066,3.405-1.197,6.632-3.557,9.087
					c-2.361,2.455-5.536,3.844-8.941,3.911l-4.437,0.087c0,0,0,0,0,0C152.502,193.389,152.417,193.39,152.333,193.39z
					 M152.518,189.888h0.01H152.518z M156.38,154.694c-0.039,0-0.076,0-0.115,0.001l-4.437,0.087
					c-1.536,0.03-2.968,0.656-4.032,1.763c-1.064,1.107-1.634,2.562-1.604,4.098l0.395,20.109c0.062,3.169,2.697,5.719,5.862,5.636
					l4.438-0.087c3.17-0.062,5.698-2.691,5.636-5.862l-0.395-20.108C162.066,157.2,159.498,154.694,156.38,154.694z"/>
			</g>
			<circle style="fill:#FFFFFF;" cx="151.251" cy="160.218" r="4.002"/>
			<circle style="fill:#FFFFFF;" cx="127.981" cy="160.358" r="4.002"/>
			<g>
				<path style="fill:#A1E4FF;" d="M382.032,190.318l-4.438-0.087c-5.108-0.1-9.167-4.322-9.066-9.43l0.395-20.109
					c0.1-5.108,4.322-9.167,9.43-9.066l4.438,0.087c5.108,0.1,9.167,4.322,9.066,9.43l-0.395,20.109
					C391.362,186.359,387.14,190.419,382.032,190.318z"/>
				<path d="M382.217,193.82c-0.084,0-0.168-0.001-0.253-0.002c0,0,0,0-0.001,0l-4.438-0.087c-3.404-0.067-6.579-1.456-8.939-3.911
					c-2.361-2.455-3.624-5.683-3.557-9.087l0.395-20.108c0.137-6.944,5.83-12.5,12.745-12.5c0.084,0,0.168,0.001,0.253,0.002
					l4.438,0.087c7.027,0.138,12.634,5.968,12.496,12.998l-0.396,20.109C394.824,188.265,389.132,193.82,382.217,193.82z
					 M382.102,186.819c3.189,0.085,5.799-2.466,5.861-5.636l0.396-20.109c0.062-3.169-2.467-5.799-5.636-5.861l-4.438-0.087
					c-0.038-0.001-0.076-0.001-0.114-0.001c-3.118,0-5.687,2.506-5.748,5.638l-0.395,20.108c-0.03,1.536,0.54,2.991,1.604,4.098
					c1.064,1.107,2.496,1.733,4.031,1.763L382.102,186.819z"/>
			</g>
			<g>
				<path style="fill:#A1E4FF;" d="M359.767,189.888l-4.438-0.087c-5.108-0.1-9.167-4.322-9.066-9.43l0.395-20.109
					c0.1-5.108,4.322-9.167,9.43-9.067l4.438,0.087c5.108,0.1,9.167,4.322,9.067,9.43l-0.395,20.109
					C369.097,185.929,364.875,189.988,359.767,189.888z"/>
				<path d="M359.952,193.39c-0.084,0-0.168-0.001-0.253-0.002c0,0,0,0-0.001,0l-4.438-0.087c-3.404-0.067-6.579-1.456-8.939-3.911
					c-2.361-2.455-3.624-5.683-3.557-9.087l0.395-20.109c0.137-6.944,5.829-12.5,12.744-12.5c0.084,0,0.168,0.001,0.253,0.002
					l4.438,0.087c7.027,0.138,12.635,5.968,12.497,12.998l-0.396,20.109C372.56,187.834,366.867,193.39,359.952,193.39z
					 M359.837,186.389c3.194,0.1,5.799-2.467,5.861-5.636l0.396-20.109c0.062-3.169-2.467-5.799-5.637-5.861l-4.438-0.087
					c-3.151-0.065-5.799,2.466-5.861,5.636l-0.395,20.109c-0.03,1.536,0.54,2.991,1.604,4.098c1.064,1.107,2.496,1.733,4.031,1.763
					L359.837,186.389z"/>
			</g>
			<circle style="fill:#FFFFFF;" cx="354.817" cy="161.13" r="4.002"/>
			<circle style="fill:#FFFFFF;" cx="377.175" cy="160.907" r="4.002"/>
		</g>
	</g>
</g>
<g id="&#x30EC;&#x30A4;&#x30E4;&#x30FC;_8" style="display:none;">
	<g style="display:inline;">
		<ellipse transform="matrix(0.7071 -0.7071 0.7071 0.7071 -58.2043 162.598)" cx="167.171" cy="151.558" rx="40.503" ry="40.503"/>
		<ellipse transform="matrix(0.745 -0.6671 0.6671 0.745 -13.2677 270.5404)" cx="347.214" cy="152.623" rx="40.503" ry="40.503"/>
		<path d="M378.166,237.885c-8.024-5.635-85.649-11.175-152.576-10.046c-5.455,0.092-10.832,0.215-16.084,0.37
			c-8.71,0.258-17.079,0.607-24.905,1.056c-7.689,0.442-14.847,0.983-21.296,1.63c-1.428,0.143-2.827,0.291-4.182,0.445
			c-1.246,0.142-2.461,0.288-3.643,0.439c-3.545,0.452-6.793,0.947-9.7,1.485c-0.969,0.179-1.9,0.364-2.791,0.553
			c-7.132,1.515-11.913,3.256-12.979,5.545c-4.875,10.469-5.728,59.964-5.728,59.966c0.132,29.827-0.853,48.217,7.681,55.044
			s160.741,1.212,168.61,8.463c7.919,7.296,8.033,21.883,19.944,22.714c11.911,0.831,8.033-20.221,18.559-21.329
			c10.524-1.108,0.261,34.956,22.77,36.725c0.004,0,0.007-0.001,0.011-0.002c18.318-5.003,20.576-61.931,23.136-111.428
			C386.449,261.372,388.648,245.246,378.166,237.885z"/>
	</g>
	<g style="display:inline;">
		<rect x="759.776" y="77.988" width="18.601" height="55.961"/>
		<polygon points="703.826,96.669 703.826,77.907 703.826,59.308 722.427,59.308 731.731,59.308 731.775,59.308 759.68,59.308 
			759.68,77.907 731.775,77.907 731.731,77.907 722.427,77.907 722.427,96.669 741.108,96.669 741.108,115.269 722.427,115.269 
			703.826,115.269 		"/>
		<polygon points="666.648,133.896 666.648,77.988 685.249,77.988 685.249,133.896 713.128,133.896 713.2,133.896 759.68,133.896 
			759.68,152.495 713.2,152.495 713.128,152.495 685.249,152.495 666.648,152.495 		"/>
	</g>
</g>
<g id="&#x30EC;&#x30A4;&#x30E4;&#x30FC;_6" style="display:none;">
	<g style="display:inline;">
		<path style="fill:#FFFFFF;stroke:#000000;stroke-width:11;stroke-linecap:round;stroke-linejoin:round;stroke-miterlimit:10;" d="
			M419.426,174.093c-20.181-6.736-51.896-12.799-159.675-12.799s-146.848,5.389-168.3,12.799S34.53,199.577,34.53,231.013v8.255
			c0,31.436,25.484,56.921,56.921,56.921h131.42c6.415-11.359,18.592-19.033,32.567-19.033h0c13.976,0,26.152,7.674,32.567,19.033
			h131.42c31.436,0,56.921-25.484,56.921-56.921v-8.255C476.346,199.577,439.606,180.829,419.426,174.093z"/>
		<g>
			<g>
				<g>
					<circle style="fill:#FFFFFF;" cx="125.879" cy="271.754" r="99.294"/>
					<path d="M125.879,177.959c51.718,0,93.794,42.076,93.794,93.795c0,51.718-42.076,93.794-93.794,93.794
						s-93.794-42.076-93.794-93.794C32.084,220.035,74.16,177.959,125.879,177.959 M125.879,166.959
						c-57.876,0-104.794,46.918-104.794,104.795c0,57.876,46.918,104.794,104.794,104.794c57.876,0,104.794-46.918,104.794-104.794
						C230.673,213.877,183.755,166.959,125.879,166.959L125.879,166.959z"/>
				</g>
				<g>
					
						<ellipse transform="matrix(0.3827 -0.9239 0.9239 0.3827 -162.8276 291.1692)" style="fill:#FFFFFF;" cx="136.469" cy="267.429" rx="86.186" ry="86.186"/>
					<path d="M136.469,186.743c44.49,0,80.686,36.195,80.686,80.686s-36.195,80.686-80.686,80.686s-80.686-36.195-80.686-80.686
						S91.979,186.743,136.469,186.743 M136.469,175.743c-50.637,0-91.686,41.049-91.686,91.686s41.049,91.686,91.686,91.686
						s91.686-41.049,91.686-91.686S187.105,175.743,136.469,175.743L136.469,175.743z"/>
				</g>
				
					<line style="fill:#FFFFFF;stroke:#000000;stroke-width:11;stroke-linecap:round;stroke-linejoin:round;stroke-miterlimit:10;" x1="136.469" y1="359.115" x2="137.714" y2="369.442"/>
				
					<line style="fill:#FFFFFF;stroke:#000000;stroke-width:11;stroke-linecap:round;stroke-linejoin:round;stroke-miterlimit:10;" x1="96.624" y1="345.865" x2="85.846" y2="360.685"/>
				
					<line style="fill:#FFFFFF;stroke:#000000;stroke-width:11;stroke-linecap:round;stroke-linejoin:round;stroke-miterlimit:10;" x1="66.311" y1="320.268" x2="56.207" y2="335.761"/>
				
					<line style="fill:#FFFFFF;stroke:#000000;stroke-width:11;stroke-linecap:round;stroke-linejoin:round;stroke-miterlimit:10;" x1="50.818" y1="293.997" x2="31.956" y2="303.427"/>
				
					<line style="fill:#FFFFFF;stroke:#000000;stroke-width:11;stroke-linecap:round;stroke-linejoin:round;stroke-miterlimit:10;" x1="48.797" y1="259.642" x2="29.936" y2="254.927"/>
			</g>
			<g>
				<g>
					
						<ellipse transform="matrix(0.5257 -0.8507 0.8507 0.5257 -49.1077 455.4279)" style="fill:#FFFFFF;" cx="383.874" cy="271.754" rx="99.294" ry="99.294"/>
					<path d="M383.874,177.959c51.718,0,93.794,42.076,93.794,93.795c0,51.718-42.076,93.794-93.794,93.794
						s-93.794-42.076-93.794-93.794C290.08,220.035,332.156,177.959,383.874,177.959 M383.874,166.959
						c-57.876,0-104.794,46.918-104.794,104.795c0,57.876,46.918,104.794,104.794,104.794s104.794-46.918,104.794-104.794
						C488.669,213.877,441.75,166.959,383.874,166.959L383.874,166.959z"/>
				</g>
				<g>
					<circle style="fill:#FFFFFF;" cx="373.284" cy="267.429" r="86.186"/>
					<path d="M373.284,186.743c44.49,0,80.686,36.195,80.686,80.686s-36.195,80.686-80.686,80.686s-80.686-36.195-80.686-80.686
						S328.794,186.743,373.284,186.743 M373.284,175.743c-50.637,0-91.686,41.049-91.686,91.686s41.049,91.686,91.686,91.686
						s91.686-41.049,91.686-91.686S423.921,175.743,373.284,175.743L373.284,175.743z"/>
				</g>
				
					<line style="fill:#FFFFFF;stroke:#000000;stroke-width:11;stroke-linecap:round;stroke-linejoin:round;stroke-miterlimit:10;" x1="373.284" y1="359.115" x2="372.039" y2="369.442"/>
				
					<line style="fill:#FFFFFF;stroke:#000000;stroke-width:11;stroke-linecap:round;stroke-linejoin:round;stroke-miterlimit:10;" x1="413.129" y1="345.865" x2="423.907" y2="360.685"/>
				
					<line style="fill:#FFFFFF;stroke:#000000;stroke-width:11;stroke-linecap:round;stroke-linejoin:round;stroke-miterlimit:10;" x1="443.442" y1="320.268" x2="453.546" y2="335.761"/>
				
					<line style="fill:#FFFFFF;stroke:#000000;stroke-width:11;stroke-linecap:round;stroke-linejoin:round;stroke-miterlimit:10;" x1="458.935" y1="293.997" x2="477.797" y2="303.427"/>
				
					<line style="fill:#FFFFFF;stroke:#000000;stroke-width:11;stroke-linecap:round;stroke-linejoin:round;stroke-miterlimit:10;" x1="460.956" y1="259.642" x2="479.817" y2="254.927"/>
			</g>
		</g>
	</g>
	
		<path style="display:inline;fill:#FFFFFF;stroke:#000000;stroke-width:11;stroke-linecap:round;stroke-linejoin:round;stroke-miterlimit:10;" d="
		M34.53,231.35c0,0,34.699-52.542,221.291-52.542S482.83,231.35,482.83,231.35s-1.347-24.25-32.334-46.48
		s-122.71-30.986-194.002-30.986S94.153,159.273,61.819,182.85S34.53,231.35,34.53,231.35z"/>
	<g style="display:inline;">
		<path style="fill:#FFFFFF;stroke:#000000;stroke-width:11;stroke-linecap:round;stroke-linejoin:round;stroke-miterlimit:10;" d="
			M240.086,187.565L240.086,187.565c-8.095,0-14.657-6.562-14.657-14.657v-17.165c0-8.095,6.562-14.657,14.657-14.657h0
			c8.095,0,14.657,6.562,14.657,14.657v17.165C254.743,181.003,248.181,187.565,240.086,187.565z"/>
		<path style="fill:#FFFFFF;stroke:#000000;stroke-width:11;stroke-linecap:round;stroke-linejoin:round;stroke-miterlimit:10;" d="
			M271.914,187.565L271.914,187.565c-8.095,0-14.657-6.562-14.657-14.657v-17.165c0-8.095,6.562-14.657,14.657-14.657h0
			c8.095,0,14.657,6.562,14.657,14.657v17.165C286.572,181.003,280.009,187.565,271.914,187.565z"/>
	</g>
	<g style="display:inline;">
		<path style="fill:#FFFFFF;stroke:#000000;stroke-width:11;stroke-linecap:round;stroke-linejoin:round;stroke-miterlimit:10;" d="
			M364.525,188.233L364.525,188.233c-8.088-0.336-14.372-7.165-14.036-15.253l0.713-17.15c0.336-8.088,7.165-14.372,15.253-14.036
			l0,0c8.088,0.336,14.372,7.165,14.036,15.253l-0.713,17.15C379.442,182.285,372.613,188.57,364.525,188.233z"/>
		<path style="fill:#FFFFFF;stroke:#000000;stroke-width:11;stroke-linecap:round;stroke-linejoin:round;stroke-miterlimit:10;" d="
			M396.13,190.898L396.13,190.898c-8.088-0.336-14.372-7.165-14.036-15.253l0.713-17.15c0.336-8.088,7.165-14.372,15.253-14.036h0
			c8.088,0.336,14.372,7.165,14.036,15.253l-0.713,17.15C411.047,184.95,404.218,191.235,396.13,190.898z"/>
	</g>
	<g style="display:inline;">
		<path style="fill:#FFFFFF;stroke:#000000;stroke-width:11;stroke-linecap:round;stroke-linejoin:round;stroke-miterlimit:10;" d="
			M110.765,192.468L110.765,192.468c-8.083,0.436-14.989-5.764-15.425-13.847l-0.924-17.14c-0.436-8.083,5.764-14.989,13.847-15.425
			h0c8.083-0.436,14.989,5.764,15.425,13.847l0.924,17.14C125.047,185.126,118.848,192.032,110.765,192.468z"/>
		<path style="fill:#FFFFFF;stroke:#000000;stroke-width:11;stroke-linecap:round;stroke-linejoin:round;stroke-miterlimit:10;" d="
			M145.069,186.637L145.069,186.637c-8.083,0.436-14.989-5.764-15.425-13.847l-0.924-17.14c-0.436-8.083,5.764-14.989,13.847-15.425
			h0c8.083-0.436,14.989,5.764,15.425,13.847l0.924,17.14C159.352,179.295,153.152,186.201,145.069,186.637z"/>
	</g>
</g>
</svg>
