<?xml version="1.0" encoding="utf-8"?>
<!-- Generator: Adobe Illustrator 27.0.0, SVG Export Plug-In . SVG Version: 6.00 Build 0)  -->
<svg version="1.1" xmlns="http://www.w3.org/2000/svg" xmlns:xlink="http://www.w3.org/1999/xlink" x="0px" y="0px"
	 viewBox="0 0 1600 1600" style="enable-background:new 0 0 1600 1600;" xml:space="preserve">
<style type="text/css">
	.st0{display:none;}
	.st1{display:inline;}
	.st2{fill:#83C1EA;}
	.st3{fill:#FFFFFF;}
</style>
<g id="レイヤー_1">
	<g id="レイヤー_1_00000097470089123153616480000013158701357036751530_" class="st0">
		<g class="st1">
			<g>
				<path d="M414.6,957.8l-8.2-182.3c-31-3.5-62.6-7-92.4-10.3l2.2,184.2l26.2-32.6L414.6,957.8z"/>
				<polygon points="1183,960.5 1199.9,1086.4 1254.8,1045.2 1310.8,1117.4 1310.8,902.6 1227.8,902.6 				"/>
				<path d="M1182.5,1128.1l-23.4-174l57.5-74.4h94.3V338.9l-63.3-80.6h-66.8v-81.5c13.6,2.1,35.4,4.4,53.5,1.8
					c28.6-4.1,61.6-42.9,19.1-61.6c-26.3-11.6-66,33.1-80.3,50.6c-14.3-17.6-54-62.2-80.3-50.6c-42.4,18.7-9.4,57.5,19.1,61.6
					c15.9,2.3,34.8,0.7,48.3-1.1v80.7h-98.7L1046,379l-117.7-92.9h-21.7v186.2h-22.9v-186h-321l-74.4,96l-55.8-96l-123.9,58.8
					l4.8,397.1c33.8,3.7,69.9,7.7,105,11.7l9.7,1.1l11,243.2L348,946.4l-31.4,39.1l5.6,458.7l92.8-16l87.2,28.1l32.8-29.8l43.4,58.3
					l41.4-57.2l82.6,16.6l74.4-48.7l161.1,3.1l46.5,45.6l83.7-33.2l58.9,58.9l80.6-49.6l103.6,23.9v-289.3l-60.3-77.7L1182.5,1128.1
					z M1001.6,592.6c33.3,0,60.3,27,60.3,60.3s-27,60.3-60.3,60.3s-60.3-27-60.3-60.3C941.3,619.6,968.3,592.6,1001.6,592.6z
					 M605.4,592.6c33.3,0,60.3,27,60.3,60.3s-27,60.3-60.3,60.3s-60.3-27-60.3-60.3C545,619.6,572,592.6,605.4,592.6z
					 M1110.4,1178.7h-100.5l0.7-114h-0.7H909.3v62.7H808.8v-62.7H509.2V763.2h601.1L1110.4,1178.7L1110.4,1178.7z"/>
			</g>
			<polygon points="1419.3,1106.7 1460.1,902.6 1227.8,902.6 1183,960.5 1199.9,1086.4 1254.8,1045.2 1321.4,1131.1 1356.2,1046.2 
							"/>
			<path d="M406.3,775.5c-92.6-10.4-191.7-21.2-225.7-24.4l-40.7,89.2l12.7,139.8l108-82.4l20.1,95.8l61.6-76.6l72.2,40.9
				L406.3,775.5z"/>
		</g>
	</g>
	<g id="レイヤー_2_00000165223680321435743410000004770178157248237725_">
		<rect class="st2" width="1600" height="1600"/>
		<g>
			<path class="st3" d="M1102.5,420.6c52.5,0,95.1,42.6,95.1,95.1s-42.6,95.1-95.1,95.1s-95.1-42.6-95.1-95.1
				C1007.4,463.1,1050,420.6,1102.5,420.6z"/>
			<path class="st3" d="M477.6,420.6c52.5,0,95.1,42.6,95.1,95.1s-42.6,95.1-95.1,95.1s-95.1-42.6-95.1-95.1
				C382.5,463.1,425.1,420.6,477.6,420.6z"/>
			<polygon class="st3" points="1273.9,1344.8 1115.4,1344.8 1116.5,1165.1 1115.4,1165.1 956.9,1165.1 956.9,1263.9 798.5,1263.9 
				798.5,1165.1 326.1,1165.1 326.1,689.6 1273.9,689.6 			"/>
		</g>
	</g>
</g>
<g id="レイヤー_2" class="st0">
	<g class="st1">
		<defs>
			<rect id="SVGID_1_" x="0" width="1600" height="1600"/>
		</defs>
		<clipPath id="SVGID_00000020386837067544055730000012105316884424410046_">
			<use xlink:href="#SVGID_1_"  style="overflow:visible;"/>
		</clipPath>
		<g style="clip-path:url(#SVGID_00000020386837067544055730000012105316884424410046_);">
			
				<image style="overflow:visible;" width="1985" height="1125" xlink:href="../../NFT/iroha_profile.jpg"  transform="matrix(1.4747 0 0 1.4747 -724.2184 -56.8059)">
			</image>
		</g>
	</g>
</g>
<g id="レイヤー_3" class="st0">
	<g class="st1">
		<g>
			<polygon class="st2" points="802.1,1124.3 797.9,1124.3 585.7,1124.3 369.4,1124.3 369.4,908.1 369.4,691.9 369.4,475.7 
				153,475.7 153,691.9 153,908.1 153,1124.3 153,1340.5 369.4,1340.5 585.7,1340.5 797.9,1340.5 802.1,1340.5 1014.3,1340.5 
				1230.6,1340.5 1230.6,1124.3 1014.3,1124.3 			"/>
			<polygon class="st2" points="1014.3,259.5 802.1,259.5 797.9,259.5 585.7,259.5 585.7,475.7 585.7,691.9 585.7,908.1 
				797.9,908.1 802.1,908.1 1014.3,908.1 1014.3,691.9 802.1,691.9 802.1,475.7 1014.3,475.7 1230.6,475.7 1230.6,259.5 			"/>
			<polygon class="st2" points="1230.6,475.7 1230.6,691.9 1230.6,908.1 1230.6,1124.3 1447,1124.3 1447,908.1 1447,691.9 
				1447,475.7 			"/>
		</g>
	</g>
</g>
</svg>
